<mxfile host="app.diagrams.net" modified="2024-06-21T21:18:19.626Z" agent="Mozilla/5.0 (Windows NT 10.0; Win64; x64) AppleWebKit/537.36 (KHTML, like Gecko) Chrome/126.0.0.0 Safari/537.36" version="24.6.1" etag="7fSBZIadM-lAclkT5gN3" type="device">
  <diagram id="2Haup7I3V-pH_OVL40q9" name="Seite-1">
    <mxGraphModel dx="-2732" dy="1960" grid="1" gridSize="10" guides="1" tooltips="1" connect="1" arrows="1" fold="1" page="0" pageScale="1" pageWidth="827" pageHeight="1169" background="none" math="0" shadow="0">
      <root>
        <mxCell id="0" />
        <mxCell id="1" parent="0" />
        <mxCell id="node36" value="&lt;p style=&quot;margin:0px;margin-top:4px;text-align:center;&quot;&gt;&lt;b&gt;DataHandler&lt;/b&gt;&lt;/p&gt;&lt;hr size=&quot;1&quot;/&gt;&lt;p style=&quot;margin:0 0 0 4px;line-height:1.6;&quot;&gt;+ DataHandler(): &lt;/p&gt;&lt;hr size=&quot;1&quot;/&gt;&lt;p style=&quot;margin:0 0 0 4px;line-height:1.6;&quot;&gt;- user: User&lt;/p&gt;&lt;hr size=&quot;1&quot;/&gt;&lt;p style=&quot;margin:0 0 0 4px;line-height:1.6;&quot;&gt;+ fetchLevelData(int): LevelData&lt;br/&gt;+ fetchLevelUserData(int): LevelUserData&lt;br/&gt;+ getUsername(): String&lt;br/&gt;+ login(String): void&lt;br/&gt;+ saveLevelData(int, int): void&lt;br/&gt;+ saveLevelUserData(LevelModel, int): void&lt;br/&gt;+ setUser(User): void&lt;/p&gt;" style="verticalAlign=top;align=left;overflow=fill;fontSize=14;fontFamily=Helvetica;html=1;rounded=0;shadow=0;comic=0;labelBackgroundColor=none;strokeWidth=1;" parent="1" vertex="1">
          <mxGeometry x="8130" y="2739" width="301" height="271" as="geometry" />
        </mxCell>
        <mxCell id="node6" value="&lt;p style=&quot;margin:0px;margin-top:4px;text-align:center;&quot;&gt;&lt;i&gt;&amp;lt;&amp;lt;enumeration&amp;gt;&amp;gt;&lt;/i&gt;&lt;br/&gt;&lt;b&gt;Direction&lt;/b&gt;&lt;/p&gt;&lt;hr size=&quot;1&quot;/&gt;&lt;p style=&quot;margin:0 0 0 4px;line-height:1.6;&quot;&gt;- Direction(): &lt;/p&gt;&lt;hr size=&quot;1&quot;/&gt;&lt;p style=&quot;margin:0 0 0 4px;line-height:1.6;&quot;&gt;+ DOWN: &lt;br/&gt;+ LEFT: &lt;br/&gt;+ RIGHT: &lt;br/&gt;+ UP: &lt;/p&gt;&lt;hr size=&quot;1&quot;/&gt;&lt;p style=&quot;margin:0 0 0 4px;line-height:1.6;&quot;&gt;+ valueOf(String): Direction&lt;br/&gt;+ values(): Direction[]&lt;/p&gt;" style="verticalAlign=top;align=left;overflow=fill;fontSize=14;fontFamily=Helvetica;html=1;rounded=0;shadow=0;comic=0;labelBackgroundColor=none;strokeWidth=1;" parent="1" vertex="1">
          <mxGeometry x="10650" y="2090" width="202" height="223" as="geometry" />
        </mxCell>
        <mxCell id="node39" value="&lt;p style=&quot;margin:0px;margin-top:4px;text-align:center;&quot;&gt;&lt;b&gt;DrawPanel&lt;/b&gt;&lt;/p&gt;&lt;hr size=&quot;1&quot;/&gt;&lt;p style=&quot;margin:0 0 0 4px;line-height:1.6;&quot;&gt;+ DrawPanel(GameModel): &lt;/p&gt;&lt;hr size=&quot;1&quot;/&gt;&lt;p style=&quot;margin:0 0 0 4px;line-height:1.6;&quot;&gt;- gameDimensions: Dimension&lt;br/&gt;- gameModel: GameModel&lt;br/&gt;+ isAnimationFinished: boolean&lt;br/&gt;- pixeloffset: double[]&lt;br/&gt;- playerAnimationTimer: Timer&lt;br/&gt;- playerModel: PlayerModel&lt;br/&gt;- playerPixelPosition: Position&lt;br/&gt;- shadowSize: int&lt;br/&gt;- tileSize: int&lt;br/&gt;- updatePixeloffset: boolean&lt;br/&gt;- upgradeOffset: int&lt;/p&gt;&lt;hr size=&quot;1&quot;/&gt;&lt;p style=&quot;margin:0 0 0 4px;line-height:1.6;&quot;&gt;- animatePlayerMovement(Position, Position): void&lt;br/&gt;- calculatePixelPos(Position): Position&lt;br/&gt;- drawEngine(boolean): void&lt;br/&gt;- drawGameField(Graphics): void&lt;br/&gt;- drawHighscores(Graphics, int): void&lt;br/&gt;- drawPlayer(Graphics, Position, int, int): void&lt;br/&gt;- drawRotatedImage(Graphics, Image, int, int, int, int, double): void&lt;br/&gt;+ movePlayer(Position, Position): boolean&lt;br/&gt;# paintComponent(Graphics): void&lt;br/&gt;+ recalculateDimensions(): void&lt;br/&gt;+ refetchPlayer(): void&lt;br/&gt;+ resetDrawEngine(): void&lt;br/&gt;+ setGameModel(GameModel): void&lt;/p&gt;" style="verticalAlign=top;align=left;overflow=fill;fontSize=14;fontFamily=Helvetica;html=1;rounded=0;shadow=0;comic=0;labelBackgroundColor=none;strokeWidth=1;" parent="1" vertex="1">
          <mxGeometry x="9160" y="3300" width="439" height="655" as="geometry" />
        </mxCell>
        <mxCell id="node48" value="&lt;p style=&quot;margin:0px;margin-top:4px;text-align:center;&quot;&gt;&lt;b&gt;GameClient&lt;/b&gt;&lt;/p&gt;&lt;hr size=&quot;1&quot;/&gt;&lt;p style=&quot;margin:0 0 0 4px;line-height:1.6;&quot;&gt;+ GameClient(String, int): &lt;/p&gt;&lt;hr size=&quot;1&quot;/&gt;&lt;p style=&quot;margin:0 0 0 4px;line-height:1.6;&quot;&gt;- PORT: int&lt;br/&gt;- currentGameModel: GameModel&lt;br/&gt;- in: ObjectInputStream&lt;br/&gt;- ip: String&lt;br/&gt;- out: ObjectOutputStream&lt;br/&gt;- socket: Socket&lt;/p&gt;&lt;hr size=&quot;1&quot;/&gt;&lt;p style=&quot;margin:0 0 0 4px;line-height:1.6;&quot;&gt;+ close(): void&lt;br/&gt;+ handleClient(): void&lt;br/&gt;+ main(String[]): void&lt;br/&gt;+ receiveGameModel(): GameModel&lt;/p&gt;" style="verticalAlign=top;align=left;overflow=fill;fontSize=14;fontFamily=Helvetica;html=1;rounded=0;shadow=0;comic=0;labelBackgroundColor=none;strokeWidth=1;" parent="1" vertex="1">
          <mxGeometry x="9226.5" y="1260" width="255" height="319" as="geometry" />
        </mxCell>
        <mxCell id="node4" value="&lt;p style=&quot;margin:0px;margin-top:4px;text-align:center;&quot;&gt;&lt;b&gt;GameController&lt;/b&gt;&lt;/p&gt;&lt;hr size=&quot;1&quot;/&gt;&lt;p style=&quot;margin:0 0 0 4px;line-height:1.6;&quot;&gt;+ GameController(): &lt;/p&gt;&lt;hr size=&quot;1&quot;/&gt;&lt;p style=&quot;margin:0 0 0 4px;line-height:1.6;&quot;&gt;- dataHandler: DataHandler&lt;br/&gt;~ gameHandler: GameHandler&lt;br/&gt;~ levelNo: int&lt;br/&gt;- networkHandler: NetworkHandler&lt;br/&gt;- scanner: Scanner&lt;/p&gt;&lt;hr size=&quot;1&quot;/&gt;&lt;p style=&quot;margin:0 0 0 4px;line-height:1.6;&quot;&gt;+ fetchLevelData(int): LevelData&lt;br/&gt;+ fetchLevelUserData(int): LevelUserData&lt;br/&gt;+ fetchUsername(): String&lt;br/&gt;+ getDataHandler(): DataHandler&lt;br/&gt;+ getGameHandler(): GameHandler&lt;br/&gt;+ getNetworkHandler(): NetworkHandler&lt;br/&gt;+ init(): void&lt;br/&gt;+ initLvl(): void&lt;br/&gt;+ move(Direction): void&lt;br/&gt;+ nextLevel(): void&lt;br/&gt;+ openGameWindow(): void&lt;br/&gt;+ recentLevel(): void&lt;br/&gt;+ resetLevel(): void&lt;br/&gt;+ saveHighscore(int, int): void&lt;br/&gt;+ savePersonalHighScore(LevelModel, int): void&lt;/p&gt;" style="verticalAlign=top;align=left;overflow=fill;fontSize=14;fontFamily=Helvetica;html=1;rounded=0;shadow=0;comic=0;labelBackgroundColor=none;strokeWidth=1;" parent="1" vertex="1">
          <mxGeometry x="8620" y="2180" width="329" height="559" as="geometry" />
        </mxCell>
        <mxCell id="node17" value="&lt;p style=&quot;margin:0px;margin-top:4px;text-align:center;&quot;&gt;&lt;b&gt;GameHandler&lt;/b&gt;&lt;/p&gt;&lt;hr size=&quot;1&quot;/&gt;&lt;p style=&quot;margin:0 0 0 4px;line-height:1.6;&quot;&gt;+ GameHandler(Level): &lt;/p&gt;&lt;hr size=&quot;1&quot;/&gt;&lt;p style=&quot;margin:0 0 0 4px;line-height:1.6;&quot;&gt;- gameModel: GameModel&lt;br/&gt;- playerHandler: PlayerHandler&lt;br/&gt;- task: GameTimerTask&lt;br/&gt;- timer: Timer&lt;/p&gt;&lt;hr size=&quot;1&quot;/&gt;&lt;p style=&quot;margin:0 0 0 4px;line-height:1.6;&quot;&gt;+ addPlayer(): void&lt;br/&gt;- clearValues(): void&lt;br/&gt;+ countTime(): void&lt;br/&gt;+ finish(): void&lt;br/&gt;+ getCurrentLevel(): LevelModel&lt;br/&gt;+ getGameModel(): GameModel&lt;br/&gt;+ getPlayerHandler(): PlayerHandler&lt;br/&gt;+ initLevelParams(): void&lt;br/&gt;+ setCurrentLevel(Level): void&lt;br/&gt;- testForBestScore(): void&lt;br/&gt;+ updateMoves(): void&lt;br/&gt;+ updateTimer(): void&lt;/p&gt;" style="verticalAlign=top;align=left;overflow=fill;fontSize=14;fontFamily=Helvetica;html=1;rounded=0;shadow=0;comic=0;labelBackgroundColor=none;strokeWidth=1;" parent="1" vertex="1">
          <mxGeometry x="9401" y="2160" width="255" height="463" as="geometry" />
        </mxCell>
        <mxCell id="node8" value="&lt;p style=&quot;margin:0px;margin-top:4px;text-align:center;&quot;&gt;&lt;b&gt;GameModel&lt;/b&gt;&lt;/p&gt;&lt;hr size=&quot;1&quot;/&gt;&lt;p style=&quot;margin:0 0 0 4px;line-height:1.6;&quot;&gt;+ GameModel(Level): &lt;/p&gt;&lt;hr size=&quot;1&quot;/&gt;&lt;p style=&quot;margin:0 0 0 4px;line-height:1.6;&quot;&gt;- BASE_SCORE: int&lt;br/&gt;- currentScore: int&lt;br/&gt;- isFinished: boolean&lt;br/&gt;- levelModel: LevelModel&lt;br/&gt;- movesCount: int&lt;br/&gt;- playerModel: PlayerModel&lt;br/&gt;- timeCount: int&lt;br/&gt;- username: String&lt;br/&gt;- version: int&lt;/p&gt;&lt;hr size=&quot;1&quot;/&gt;&lt;p style=&quot;margin:0 0 0 4px;line-height:1.6;&quot;&gt;+ allUpgradesCollected(): boolean&lt;br/&gt;+ getBASE_SCORE(): int&lt;br/&gt;+ getCurrentScore(): int&lt;br/&gt;+ getLevelModel(): LevelModel&lt;br/&gt;+ getMovesCount(): int&lt;br/&gt;+ getPlayerModel(): PlayerModel&lt;br/&gt;+ getTimeCount(): int&lt;br/&gt;+ getUsername(): String&lt;br/&gt;+ isFinished(): boolean&lt;br/&gt;+ setCurrentScore(int): void&lt;br/&gt;+ setFinished(boolean): void&lt;br/&gt;+ setLevelModel(LevelModel): void&lt;br/&gt;+ setMovesCount(int): void&lt;br/&gt;+ setPlayerModel(PlayerModel): void&lt;br/&gt;+ setTimeCount(int): void&lt;br/&gt;+ setUsername(String): void&lt;/p&gt;" style="verticalAlign=top;align=left;overflow=fill;fontSize=14;fontFamily=Helvetica;html=1;rounded=0;shadow=0;comic=0;labelBackgroundColor=none;strokeWidth=1;" parent="1" vertex="1">
          <mxGeometry x="9610" y="1260" width="261" height="679" as="geometry" />
        </mxCell>
        <mxCell id="node40" value="&lt;p style=&quot;margin:0px;margin-top:4px;text-align:center;&quot;&gt;&lt;b&gt;GameServer&lt;/b&gt;&lt;/p&gt;&lt;hr size=&quot;1&quot;/&gt;&lt;p style=&quot;margin:0 0 0 4px;line-height:1.6;&quot;&gt;+ GameServer(int): &lt;/p&gt;&lt;hr size=&quot;1&quot;/&gt;&lt;p style=&quot;margin:0 0 0 4px;line-height:1.6;&quot;&gt;- clientOutputs: List&amp;lt;ObjectOutputStream&amp;gt;&lt;br/&gt;~ clientSocket: Socket&lt;br/&gt;- gameModel: GameModel&lt;br/&gt;- serverSocket: ServerSocket&lt;/p&gt;&lt;hr size=&quot;1&quot;/&gt;&lt;p style=&quot;margin:0 0 0 4px;line-height:1.6;&quot;&gt;- acceptClients(): void&lt;br/&gt;+ getPort(): int&lt;br/&gt;- handleClient(ObjectOutputStream): void&lt;/p&gt;" style="verticalAlign=top;align=left;overflow=fill;fontSize=14;fontFamily=Helvetica;html=1;rounded=0;shadow=0;comic=0;labelBackgroundColor=none;strokeWidth=1;" parent="1" vertex="1">
          <mxGeometry x="8720" y="1332" width="301" height="247" as="geometry" />
        </mxCell>
        <mxCell id="node20" value="&lt;p style=&quot;margin:0px;margin-top:4px;text-align:center;&quot;&gt;&lt;b&gt;GameTimerTask&lt;/b&gt;&lt;/p&gt;&lt;hr size=&quot;1&quot;/&gt;&lt;p style=&quot;margin:0 0 0 4px;line-height:1.6;&quot;&gt;+ GameTimerTask(GameHandler): &lt;/p&gt;&lt;hr size=&quot;1&quot;/&gt;&lt;p style=&quot;margin:0 0 0 4px;line-height:1.6;&quot;&gt;- gameHandler: GameHandler&lt;br/&gt;- seconds: int&lt;/p&gt;&lt;hr size=&quot;1&quot;/&gt;&lt;p style=&quot;margin:0 0 0 4px;line-height:1.6;&quot;&gt;+ run(): void&lt;/p&gt;" style="verticalAlign=top;align=left;overflow=fill;fontSize=14;fontFamily=Helvetica;html=1;rounded=0;shadow=0;comic=0;labelBackgroundColor=none;strokeWidth=1;" parent="1" vertex="1">
          <mxGeometry x="9290" y="1965" width="230" height="170" as="geometry" />
        </mxCell>
        <mxCell id="node28" value="&lt;p style=&quot;margin:0px;margin-top:4px;text-align:center;&quot;&gt;&lt;b&gt;GameWindow&lt;/b&gt;&lt;/p&gt;&lt;hr size=&quot;1&quot;/&gt;&lt;p style=&quot;margin:0 0 0 4px;line-height:1.6;&quot;&gt;+ GameWindow(GameModel): &lt;/p&gt;&lt;hr size=&quot;1&quot;/&gt;&lt;p style=&quot;margin:0 0 0 4px;line-height:1.6;&quot;&gt;- backgroundMusicPlayer: MP3Player&lt;br/&gt;- gameModel: GameModel&lt;br/&gt;- gamePanel: DrawPanel&lt;/p&gt;&lt;hr size=&quot;1&quot;/&gt;&lt;p style=&quot;margin:0 0 0 4px;line-height:1.6;&quot;&gt;- controlWindow(int): void&lt;br/&gt;- getSongs(): File[]&lt;br/&gt;- playBackgroundMusic(): void&lt;br/&gt;- toggleMusic(): void&lt;/p&gt;" style="verticalAlign=top;align=left;overflow=fill;fontSize=14;fontFamily=Helvetica;html=1;rounded=0;shadow=0;comic=0;labelBackgroundColor=none;strokeWidth=1;" parent="1" vertex="1">
          <mxGeometry x="9030" y="2938" width="266" height="247" as="geometry" />
        </mxCell>
        <mxCell id="node55" value="&lt;p style=&quot;margin:0px;margin-top:4px;text-align:center;&quot;&gt;&lt;b&gt;Level&lt;/b&gt;&lt;/p&gt;&lt;hr size=&quot;1&quot;/&gt;&lt;p style=&quot;margin:0 0 0 4px;line-height:1.6;&quot;&gt;+ Level(): &lt;/p&gt;&lt;hr size=&quot;1&quot;/&gt;&lt;p style=&quot;margin:0 0 0 4px;line-height:1.6;&quot;&gt;+ ID: int&lt;br/&gt;+ bestMoves: int&lt;br/&gt;+ bestScore: int&lt;br/&gt;+ bestTime: int&lt;br/&gt;+ finishPositions: ArrayList&amp;lt;Position&amp;gt;&lt;br/&gt;+ height: int&lt;br/&gt;+ startingPosition: Position&lt;br/&gt;+ tiles: Map&amp;lt;Position, Tile&amp;gt;&lt;br/&gt;+ title: String&lt;br/&gt;+ upgrades: Map&amp;lt;Position, Upgrades&amp;gt;&lt;br/&gt;+ width: int&lt;/p&gt;&lt;hr size=&quot;1&quot;/&gt;&lt;p style=&quot;margin:0 0 0 4px;line-height:1.6;&quot;&gt;+ addCheckPattern(): void&lt;br/&gt;+ configure(): void&lt;br/&gt;+ drawLineOfStandards(Position, Position): void&lt;br/&gt;+ drawLineOfWalls(Position, Position): void&lt;br/&gt;+ fillWithStandards(Position, Position): void&lt;br/&gt;+ getID(): int&lt;br/&gt;+ setGoal(Position): void&lt;br/&gt;+ test(): void&lt;/p&gt;" style="verticalAlign=top;align=left;overflow=fill;fontSize=14;fontFamily=Helvetica;html=1;rounded=0;shadow=0;comic=0;labelBackgroundColor=none;strokeWidth=1;" parent="1" vertex="1">
          <mxGeometry x="6890" y="1377" width="329" height="535" as="geometry" />
        </mxCell>
        <mxCell id="node13" value="&lt;p style=&quot;margin:0px;margin-top:4px;text-align:center;&quot;&gt;&lt;b&gt;LevelData&lt;/b&gt;&lt;/p&gt;&lt;hr size=&quot;1&quot;/&gt;&lt;p style=&quot;margin:0 0 0 4px;line-height:1.6;&quot;&gt;+ LevelData(int, int, String): &lt;/p&gt;&lt;hr size=&quot;1&quot;/&gt;&lt;p style=&quot;margin:0 0 0 4px;line-height:1.6;&quot;&gt;- bestUserName: String&lt;br/&gt;- highscore: int&lt;br/&gt;- level: Level&lt;br/&gt;- levelId: int&lt;/p&gt;&lt;hr size=&quot;1&quot;/&gt;&lt;p style=&quot;margin:0 0 0 4px;line-height:1.6;&quot;&gt;+ getBestUserName(): String&lt;br/&gt;+ getHighscore(): int&lt;br/&gt;+ getLevel(): Level&lt;br/&gt;+ getLevelId(): int&lt;br/&gt;+ setLevel(Level): void&lt;/p&gt;" style="verticalAlign=top;align=left;overflow=fill;fontSize=14;fontFamily=Helvetica;html=1;rounded=0;shadow=0;comic=0;labelBackgroundColor=none;strokeWidth=1;" parent="1" vertex="1">
          <mxGeometry x="7899" y="2370" width="211" height="295" as="geometry" />
        </mxCell>
        <mxCell id="node18" value="&lt;p style=&quot;margin:0px;margin-top:4px;text-align:center;&quot;&gt;&lt;b&gt;LevelDataService&lt;/b&gt;&lt;/p&gt;&lt;hr size=&quot;1&quot;/&gt;&lt;p style=&quot;margin:0 0 0 4px;line-height:1.6;&quot;&gt;+ LevelDataService(): &lt;/p&gt;&lt;hr size=&quot;1&quot;/&gt;&lt;p style=&quot;margin:0 0 0 4px;line-height:1.6;&quot;&gt;- FILE_PATH: String&lt;br/&gt;- gson: Gson&lt;/p&gt;&lt;hr size=&quot;1&quot;/&gt;&lt;p style=&quot;margin:0 0 0 4px;line-height:1.6;&quot;&gt;+ addLevelData(LevelData): void&lt;br/&gt;- createFileIfNotExists(): void&lt;br/&gt;- fillLevelsIfNotExist(): void&lt;br/&gt;+ loadAllLevelData(): List&amp;lt;LevelData&amp;gt;&lt;br/&gt;+ loadLevelData(int): LevelData&lt;br/&gt;+ saveAllLevelData(List&amp;lt;LevelData&amp;gt;): void&lt;br/&gt;+ saveLevelData(int, User, int): void&lt;br/&gt;+ updateLevelData(LevelData): void&lt;/p&gt;" style="verticalAlign=top;align=left;overflow=fill;fontSize=14;fontFamily=Helvetica;html=1;rounded=0;shadow=0;comic=0;labelBackgroundColor=none;strokeWidth=1;" parent="1" vertex="1">
          <mxGeometry x="7770" y="3070" width="297" height="319" as="geometry" />
        </mxCell>
        <mxCell id="node12" value="&lt;p style=&quot;margin:0px;margin-top:4px;text-align:center;&quot;&gt;&lt;b&gt;LevelModel&lt;/b&gt;&lt;/p&gt;&lt;hr size=&quot;1&quot;/&gt;&lt;p style=&quot;margin:0 0 0 4px;line-height:1.6;&quot;&gt;+ LevelModel(Level): &lt;/p&gt;&lt;hr size=&quot;1&quot;/&gt;&lt;p style=&quot;margin:0 0 0 4px;line-height:1.6;&quot;&gt;- ID: int&lt;br/&gt;- bestScore: int&lt;br/&gt;- finishPositions: ArrayList&amp;lt;Position&amp;gt;&lt;br/&gt;- height: int&lt;br/&gt;- startingPosition: Position&lt;br/&gt;- tiles: Map&amp;lt;Position, Tile&amp;gt;&lt;br/&gt;- title: String&lt;br/&gt;- upgrades: Map&amp;lt;Position, Upgrades&amp;gt;&lt;br/&gt;- width: int&lt;/p&gt;&lt;hr size=&quot;1&quot;/&gt;&lt;p style=&quot;margin:0 0 0 4px;line-height:1.6;&quot;&gt;+ getBestScore(): int&lt;br/&gt;+ getFinishPositions(): ArrayList&amp;lt;Position&amp;gt;&lt;br/&gt;+ getHeight(): int&lt;br/&gt;+ getID(): int&lt;br/&gt;+ getStartingPosition(): Position&lt;br/&gt;+ getTiles(): Map&amp;lt;Position, Tile&amp;gt;&lt;br/&gt;+ getUpgrades(): Map&amp;lt;Position, Upgrades&amp;gt;&lt;br/&gt;+ getWidth(): int&lt;br/&gt;+ isPlayable(Position): boolean&lt;br/&gt;+ setBestScore(int): void&lt;br/&gt;+ setFinishPositions(ArrayList&amp;lt;Position&amp;gt;): void&lt;br/&gt;+ setHeight(int): void&lt;br/&gt;+ setID(int): void&lt;br/&gt;+ setStartingPosition(Position): void&lt;br/&gt;+ setTiles(Map&amp;lt;Position, Tile&amp;gt;): void&lt;br/&gt;+ setUpgrades(Map&amp;lt;Position, Upgrades&amp;gt;): void&lt;br/&gt;+ setWidth(int): void&lt;/p&gt;" style="verticalAlign=top;align=left;overflow=fill;fontSize=14;fontFamily=Helvetica;html=1;rounded=0;shadow=0;comic=0;labelBackgroundColor=none;strokeWidth=1;" parent="1" vertex="1">
          <mxGeometry x="10050" y="674" width="329" height="703" as="geometry" />
        </mxCell>
        <mxCell id="node5" value="&lt;p style=&quot;margin:0px;margin-top:4px;text-align:center;&quot;&gt;&lt;b&gt;Level_1&lt;/b&gt;&lt;/p&gt;&lt;hr size=&quot;1&quot;/&gt;&lt;p style=&quot;margin:0 0 0 4px;line-height:1.6;&quot;&gt;+ Level_1(): &lt;/p&gt;&lt;hr size=&quot;1&quot;/&gt;&lt;p style=&quot;margin:0 0 0 4px;line-height:1.6;&quot;&gt;+ configure(): void&lt;br/&gt;- configureGoal(): void&lt;br/&gt;- configureRest(): void&lt;br/&gt;- configureTiles(): void&lt;br/&gt;- configureUpgrades(): void&lt;/p&gt;" style="verticalAlign=top;align=left;overflow=fill;fontSize=14;fontFamily=Helvetica;html=1;rounded=0;shadow=0;comic=0;labelBackgroundColor=none;strokeWidth=1;" parent="1" vertex="1">
          <mxGeometry x="7450" y="2090" width="207" height="191" as="geometry" />
        </mxCell>
        <mxCell id="node21" value="&lt;p style=&quot;margin:0px;margin-top:4px;text-align:center;&quot;&gt;&lt;b&gt;Level_10&lt;/b&gt;&lt;/p&gt;&lt;hr size=&quot;1&quot;/&gt;&lt;p style=&quot;margin:0 0 0 4px;line-height:1.6;&quot;&gt;+ Level_10(): &lt;/p&gt;&lt;hr size=&quot;1&quot;/&gt;&lt;p style=&quot;margin:0 0 0 4px;line-height:1.6;&quot;&gt;+ configure(): void&lt;br/&gt;- configureGoal(): void&lt;br/&gt;- configureRest(): void&lt;br/&gt;- configureTiles(): void&lt;br/&gt;- configureUpgrades(): void&lt;/p&gt;" style="verticalAlign=top;align=left;overflow=fill;fontSize=14;fontFamily=Helvetica;html=1;rounded=0;shadow=0;comic=0;labelBackgroundColor=none;strokeWidth=1;" parent="1" vertex="1">
          <mxGeometry x="6830" y="2350" width="207" height="191" as="geometry" />
        </mxCell>
        <mxCell id="node49" value="&lt;p style=&quot;margin:0px;margin-top:4px;text-align:center;&quot;&gt;&lt;b&gt;Level_11&lt;/b&gt;&lt;/p&gt;&lt;hr size=&quot;1&quot;/&gt;&lt;p style=&quot;margin:0 0 0 4px;line-height:1.6;&quot;&gt;+ Level_11(): &lt;/p&gt;&lt;hr size=&quot;1&quot;/&gt;&lt;p style=&quot;margin:0 0 0 4px;line-height:1.6;&quot;&gt;+ configure(): void&lt;br/&gt;- configureGoal(): void&lt;br/&gt;- configureRest(): void&lt;br/&gt;- configureTiles(): void&lt;br/&gt;- configureUpgrades(): void&lt;/p&gt;" style="verticalAlign=top;align=left;overflow=fill;fontSize=14;fontFamily=Helvetica;html=1;rounded=0;shadow=0;comic=0;labelBackgroundColor=none;strokeWidth=1;" parent="1" vertex="1">
          <mxGeometry x="7140" y="2350" width="207" height="191" as="geometry" />
        </mxCell>
        <mxCell id="node56" value="&lt;p style=&quot;margin:0px;margin-top:4px;text-align:center;&quot;&gt;&lt;b&gt;Level_12&lt;/b&gt;&lt;/p&gt;&lt;hr size=&quot;1&quot;/&gt;&lt;p style=&quot;margin:0 0 0 4px;line-height:1.6;&quot;&gt;+ Level_12(): &lt;/p&gt;&lt;hr size=&quot;1&quot;/&gt;&lt;p style=&quot;margin:0 0 0 4px;line-height:1.6;&quot;&gt;+ configure(): void&lt;br/&gt;- configureGoal(): void&lt;br/&gt;- configureRest(): void&lt;br/&gt;- configureTiles(): void&lt;br/&gt;- configureUpgrades(): void&lt;/p&gt;" style="verticalAlign=top;align=left;overflow=fill;fontSize=14;fontFamily=Helvetica;html=1;rounded=0;shadow=0;comic=0;labelBackgroundColor=none;strokeWidth=1;" parent="1" vertex="1">
          <mxGeometry x="7140" y="2739" width="207" height="191" as="geometry" />
        </mxCell>
        <mxCell id="node23" value="&lt;p style=&quot;margin:0px;margin-top:4px;text-align:center;&quot;&gt;&lt;b&gt;Level_13&lt;/b&gt;&lt;/p&gt;&lt;hr size=&quot;1&quot;/&gt;&lt;p style=&quot;margin:0 0 0 4px;line-height:1.6;&quot;&gt;+ Level_13(): &lt;/p&gt;&lt;hr size=&quot;1&quot;/&gt;&lt;p style=&quot;margin:0 0 0 4px;line-height:1.6;&quot;&gt;+ configure(): void&lt;br/&gt;- configureGoal(): void&lt;br/&gt;- configureRest(): void&lt;br/&gt;- configureTiles(): void&lt;br/&gt;- configureUpgrades(): void&lt;/p&gt;" style="verticalAlign=top;align=left;overflow=fill;fontSize=14;fontFamily=Helvetica;html=1;rounded=0;shadow=0;comic=0;labelBackgroundColor=none;strokeWidth=1;" parent="1" vertex="1">
          <mxGeometry x="6830" y="2739" width="207" height="191" as="geometry" />
        </mxCell>
        <mxCell id="node50" value="&lt;p style=&quot;margin:0px;margin-top:4px;text-align:center;&quot;&gt;&lt;b&gt;Level_14&lt;/b&gt;&lt;/p&gt;&lt;hr size=&quot;1&quot;/&gt;&lt;p style=&quot;margin:0 0 0 4px;line-height:1.6;&quot;&gt;+ Level_14(): &lt;/p&gt;&lt;hr size=&quot;1&quot;/&gt;&lt;p style=&quot;margin:0 0 0 4px;line-height:1.6;&quot;&gt;+ configure(): void&lt;br/&gt;- configureGoal(): void&lt;br/&gt;- configureRest(): void&lt;br/&gt;- configureTiles(): void&lt;br/&gt;- configureUpgrades(): void&lt;/p&gt;" style="verticalAlign=top;align=left;overflow=fill;fontSize=14;fontFamily=Helvetica;html=1;rounded=0;shadow=0;comic=0;labelBackgroundColor=none;strokeWidth=1;" parent="1" vertex="1">
          <mxGeometry x="6520" y="2739" width="207" height="191" as="geometry" />
        </mxCell>
        <mxCell id="node52" value="&lt;p style=&quot;margin:0px;margin-top:4px;text-align:center;&quot;&gt;&lt;b&gt;Level_15&lt;/b&gt;&lt;/p&gt;&lt;hr size=&quot;1&quot;/&gt;&lt;p style=&quot;margin:0 0 0 4px;line-height:1.6;&quot;&gt;+ Level_15(): &lt;/p&gt;&lt;hr size=&quot;1&quot;/&gt;&lt;p style=&quot;margin:0 0 0 4px;line-height:1.6;&quot;&gt;+ configure(): void&lt;br/&gt;- configureGoal(): void&lt;br/&gt;- configureRest(): void&lt;br/&gt;- configureTiles(): void&lt;br/&gt;- configureUpgrades(): void&lt;/p&gt;" style="verticalAlign=top;align=left;overflow=fill;fontSize=14;fontFamily=Helvetica;html=1;rounded=0;shadow=0;comic=0;labelBackgroundColor=none;strokeWidth=1;" parent="1" vertex="1">
          <mxGeometry x="6210" y="2739" width="207" height="191" as="geometry" />
        </mxCell>
        <mxCell id="node27" value="&lt;p style=&quot;margin:0px;margin-top:4px;text-align:center;&quot;&gt;&lt;b&gt;Level_16&lt;/b&gt;&lt;/p&gt;&lt;hr size=&quot;1&quot;/&gt;&lt;p style=&quot;margin:0 0 0 4px;line-height:1.6;&quot;&gt;+ Level_16(): &lt;/p&gt;&lt;hr size=&quot;1&quot;/&gt;&lt;p style=&quot;margin:0 0 0 4px;line-height:1.6;&quot;&gt;+ configure(): void&lt;br/&gt;- configureGoal(): void&lt;br/&gt;- configureRest(): void&lt;br/&gt;- configureTiles(): void&lt;br/&gt;- configureUpgrades(): void&lt;/p&gt;" style="verticalAlign=top;align=left;overflow=fill;fontSize=14;fontFamily=Helvetica;html=1;rounded=0;shadow=0;comic=0;labelBackgroundColor=none;strokeWidth=1;" parent="1" vertex="1">
          <mxGeometry x="5910" y="2739" width="207" height="191" as="geometry" />
        </mxCell>
        <mxCell id="node34" value="&lt;p style=&quot;margin:0px;margin-top:4px;text-align:center;&quot;&gt;&lt;b&gt;Level_17&lt;/b&gt;&lt;/p&gt;&lt;hr size=&quot;1&quot;/&gt;&lt;p style=&quot;margin:0 0 0 4px;line-height:1.6;&quot;&gt;+ Level_17(): &lt;/p&gt;&lt;hr size=&quot;1&quot;/&gt;&lt;p style=&quot;margin:0 0 0 4px;line-height:1.6;&quot;&gt;+ configure(): void&lt;br/&gt;- configureGoal(): void&lt;br/&gt;- configureRest(): void&lt;br/&gt;- configureTiles(): void&lt;br/&gt;- configureUpgrades(): void&lt;/p&gt;" style="verticalAlign=top;align=left;overflow=fill;fontSize=14;fontFamily=Helvetica;html=1;rounded=0;shadow=0;comic=0;labelBackgroundColor=none;strokeWidth=1;" parent="1" vertex="1">
          <mxGeometry x="5910" y="3010" width="207" height="191" as="geometry" />
        </mxCell>
        <mxCell id="node1" value="&lt;p style=&quot;margin:0px;margin-top:4px;text-align:center;&quot;&gt;&lt;b&gt;Level_18&lt;/b&gt;&lt;/p&gt;&lt;hr size=&quot;1&quot;/&gt;&lt;p style=&quot;margin:0 0 0 4px;line-height:1.6;&quot;&gt;+ Level_18(): &lt;/p&gt;&lt;hr size=&quot;1&quot;/&gt;&lt;p style=&quot;margin:0 0 0 4px;line-height:1.6;&quot;&gt;+ configure(): void&lt;br/&gt;- configureGoal(): void&lt;br/&gt;- configureRest(): void&lt;br/&gt;- configureTiles(): void&lt;br/&gt;- configureUpgrades(): void&lt;/p&gt;" style="verticalAlign=top;align=left;overflow=fill;fontSize=14;fontFamily=Helvetica;html=1;rounded=0;shadow=0;comic=0;labelBackgroundColor=none;strokeWidth=1;" parent="1" vertex="1">
          <mxGeometry x="6211" y="3010" width="207" height="191" as="geometry" />
        </mxCell>
        <mxCell id="node22" value="&lt;p style=&quot;margin:0px;margin-top:4px;text-align:center;&quot;&gt;&lt;b&gt;Level_19&lt;/b&gt;&lt;/p&gt;&lt;hr size=&quot;1&quot;/&gt;&lt;p style=&quot;margin:0 0 0 4px;line-height:1.6;&quot;&gt;+ Level_19(): &lt;/p&gt;&lt;hr size=&quot;1&quot;/&gt;&lt;p style=&quot;margin:0 0 0 4px;line-height:1.6;&quot;&gt;+ configure(): void&lt;br/&gt;- configureGoal(): void&lt;br/&gt;- configureRest(): void&lt;br/&gt;- configureTiles(): void&lt;br/&gt;- configureUpgrades(): void&lt;/p&gt;" style="verticalAlign=top;align=left;overflow=fill;fontSize=14;fontFamily=Helvetica;html=1;rounded=0;shadow=0;comic=0;labelBackgroundColor=none;strokeWidth=1;" parent="1" vertex="1">
          <mxGeometry x="6520" y="3010" width="207" height="191" as="geometry" />
        </mxCell>
        <mxCell id="node10" value="&lt;p style=&quot;margin:0px;margin-top:4px;text-align:center;&quot;&gt;&lt;b&gt;Level_2&lt;/b&gt;&lt;/p&gt;&lt;hr size=&quot;1&quot;/&gt;&lt;p style=&quot;margin:0 0 0 4px;line-height:1.6;&quot;&gt;+ Level_2(): &lt;/p&gt;&lt;hr size=&quot;1&quot;/&gt;&lt;p style=&quot;margin:0 0 0 4px;line-height:1.6;&quot;&gt;+ configure(): void&lt;br/&gt;- configureGoal(): void&lt;br/&gt;- configureRest(): void&lt;br/&gt;- configureTiles(): void&lt;br/&gt;- configureUpgrades(): void&lt;/p&gt;" style="verticalAlign=top;align=left;overflow=fill;fontSize=14;fontFamily=Helvetica;html=1;rounded=0;shadow=0;comic=0;labelBackgroundColor=none;strokeWidth=1;" parent="1" vertex="1">
          <mxGeometry x="7140" y="2090" width="207" height="191" as="geometry" />
        </mxCell>
        <mxCell id="node14" value="&lt;p style=&quot;margin:0px;margin-top:4px;text-align:center;&quot;&gt;&lt;b&gt;Level_20&lt;/b&gt;&lt;/p&gt;&lt;hr size=&quot;1&quot;/&gt;&lt;p style=&quot;margin:0 0 0 4px;line-height:1.6;&quot;&gt;+ Level_20(): &lt;/p&gt;&lt;hr size=&quot;1&quot;/&gt;&lt;p style=&quot;margin:0 0 0 4px;line-height:1.6;&quot;&gt;+ configure(): void&lt;br/&gt;- configureGoals(): void&lt;br/&gt;- configureRest(): void&lt;br/&gt;- configureTiles(): void&lt;br/&gt;- configureUpgrades(): void&lt;/p&gt;" style="verticalAlign=top;align=left;overflow=fill;fontSize=14;fontFamily=Helvetica;html=1;rounded=0;shadow=0;comic=0;labelBackgroundColor=none;strokeWidth=1;" parent="1" vertex="1">
          <mxGeometry x="6830" y="3020" width="207" height="191" as="geometry" />
        </mxCell>
        <mxCell id="node54" value="&lt;p style=&quot;margin:0px;margin-top:4px;text-align:center;&quot;&gt;&lt;b&gt;Level_3&lt;/b&gt;&lt;/p&gt;&lt;hr size=&quot;1&quot;/&gt;&lt;p style=&quot;margin:0 0 0 4px;line-height:1.6;&quot;&gt;+ Level_3(): &lt;/p&gt;&lt;hr size=&quot;1&quot;/&gt;&lt;p style=&quot;margin:0 0 0 4px;line-height:1.6;&quot;&gt;+ configure(): void&lt;br/&gt;- configureGoal(): void&lt;br/&gt;- configureRest(): void&lt;br/&gt;- configureTiles(): void&lt;br/&gt;- configureUpgrades(): void&lt;/p&gt;" style="verticalAlign=top;align=left;overflow=fill;fontSize=14;fontFamily=Helvetica;html=1;rounded=0;shadow=0;comic=0;labelBackgroundColor=none;strokeWidth=1;" parent="1" vertex="1">
          <mxGeometry x="6830" y="2090" width="207" height="191" as="geometry" />
        </mxCell>
        <mxCell id="node29" value="&lt;p style=&quot;margin:0px;margin-top:4px;text-align:center;&quot;&gt;&lt;b&gt;Level_4&lt;/b&gt;&lt;/p&gt;&lt;hr size=&quot;1&quot;/&gt;&lt;p style=&quot;margin:0 0 0 4px;line-height:1.6;&quot;&gt;+ Level_4(): &lt;/p&gt;&lt;hr size=&quot;1&quot;/&gt;&lt;p style=&quot;margin:0 0 0 4px;line-height:1.6;&quot;&gt;+ configure(): void&lt;br/&gt;- configureGoal(): void&lt;br/&gt;- configureRest(): void&lt;br/&gt;- configureTiles(): void&lt;br/&gt;- configureUpgrades(): void&lt;/p&gt;" style="verticalAlign=top;align=left;overflow=fill;fontSize=14;fontFamily=Helvetica;html=1;rounded=0;shadow=0;comic=0;labelBackgroundColor=none;strokeWidth=1;" parent="1" vertex="1">
          <mxGeometry x="6520" y="2090" width="207" height="191" as="geometry" />
        </mxCell>
        <mxCell id="node37" value="&lt;p style=&quot;margin:0px;margin-top:4px;text-align:center;&quot;&gt;&lt;b&gt;Level_5&lt;/b&gt;&lt;/p&gt;&lt;hr size=&quot;1&quot;/&gt;&lt;p style=&quot;margin:0 0 0 4px;line-height:1.6;&quot;&gt;+ Level_5(): &lt;/p&gt;&lt;hr size=&quot;1&quot;/&gt;&lt;p style=&quot;margin:0 0 0 4px;line-height:1.6;&quot;&gt;+ configure(): void&lt;br/&gt;- configureGoal(): void&lt;br/&gt;- configureRest(): void&lt;br/&gt;- configureTiles(): void&lt;br/&gt;- configureUpgrades(): void&lt;/p&gt;" style="verticalAlign=top;align=left;overflow=fill;fontSize=14;fontFamily=Helvetica;html=1;rounded=0;shadow=0;comic=0;labelBackgroundColor=none;strokeWidth=1;" parent="1" vertex="1">
          <mxGeometry x="6210" y="2090" width="207" height="191" as="geometry" />
        </mxCell>
        <mxCell id="node42" value="&lt;p style=&quot;margin:0px;margin-top:4px;text-align:center;&quot;&gt;&lt;b&gt;Level_6&lt;/b&gt;&lt;/p&gt;&lt;hr size=&quot;1&quot;/&gt;&lt;p style=&quot;margin:0 0 0 4px;line-height:1.6;&quot;&gt;+ Level_6(): &lt;/p&gt;&lt;hr size=&quot;1&quot;/&gt;&lt;p style=&quot;margin:0 0 0 4px;line-height:1.6;&quot;&gt;+ configure(): void&lt;br/&gt;- configureGoal(): void&lt;br/&gt;- configureRest(): void&lt;br/&gt;- configureTiles(): void&lt;br/&gt;- configureUpgrades(): void&lt;/p&gt;" style="verticalAlign=top;align=left;overflow=fill;fontSize=14;fontFamily=Helvetica;html=1;rounded=0;shadow=0;comic=0;labelBackgroundColor=none;strokeWidth=1;" parent="1" vertex="1">
          <mxGeometry x="5920" y="2090" width="207" height="191" as="geometry" />
        </mxCell>
        <mxCell id="node47" value="&lt;p style=&quot;margin:0px;margin-top:4px;text-align:center;&quot;&gt;&lt;b&gt;Level_7&lt;/b&gt;&lt;/p&gt;&lt;hr size=&quot;1&quot;/&gt;&lt;p style=&quot;margin:0 0 0 4px;line-height:1.6;&quot;&gt;+ Level_7(): &lt;/p&gt;&lt;hr size=&quot;1&quot;/&gt;&lt;p style=&quot;margin:0 0 0 4px;line-height:1.6;&quot;&gt;+ configure(): void&lt;br/&gt;- configureGoal(): void&lt;br/&gt;- configureRest(): void&lt;br/&gt;- configureTiles(): void&lt;br/&gt;- configureUpgrades(): void&lt;/p&gt;" style="verticalAlign=top;align=left;overflow=fill;fontSize=14;fontFamily=Helvetica;html=1;rounded=0;shadow=0;comic=0;labelBackgroundColor=none;strokeWidth=1;" parent="1" vertex="1">
          <mxGeometry x="5920" y="2340" width="207" height="191" as="geometry" />
        </mxCell>
        <mxCell id="node43" value="&lt;p style=&quot;margin:0px;margin-top:4px;text-align:center;&quot;&gt;&lt;b&gt;Level_8&lt;/b&gt;&lt;/p&gt;&lt;hr size=&quot;1&quot;/&gt;&lt;p style=&quot;margin:0 0 0 4px;line-height:1.6;&quot;&gt;+ Level_8(): &lt;/p&gt;&lt;hr size=&quot;1&quot;/&gt;&lt;p style=&quot;margin:0 0 0 4px;line-height:1.6;&quot;&gt;+ configure(): void&lt;br/&gt;- configureGoal(): void&lt;br/&gt;- configureRest(): void&lt;br/&gt;- configureTiles(): void&lt;br/&gt;- configureUpgrades(): void&lt;/p&gt;" style="verticalAlign=top;align=left;overflow=fill;fontSize=14;fontFamily=Helvetica;html=1;rounded=0;shadow=0;comic=0;labelBackgroundColor=none;strokeWidth=1;" parent="1" vertex="1">
          <mxGeometry x="6211" y="2340" width="207" height="191" as="geometry" />
        </mxCell>
        <mxCell id="node15" value="&lt;p style=&quot;margin:0px;margin-top:4px;text-align:center;&quot;&gt;&lt;b&gt;Level_9&lt;/b&gt;&lt;/p&gt;&lt;hr size=&quot;1&quot;/&gt;&lt;p style=&quot;margin:0 0 0 4px;line-height:1.6;&quot;&gt;+ Level_9(): &lt;/p&gt;&lt;hr size=&quot;1&quot;/&gt;&lt;p style=&quot;margin:0 0 0 4px;line-height:1.6;&quot;&gt;+ configure(): void&lt;br/&gt;- configureGoal(): void&lt;br/&gt;- configureRest(): void&lt;br/&gt;- configureTiles(): void&lt;br/&gt;- configureUpgrades(): void&lt;/p&gt;" style="verticalAlign=top;align=left;overflow=fill;fontSize=14;fontFamily=Helvetica;html=1;rounded=0;shadow=0;comic=0;labelBackgroundColor=none;strokeWidth=1;" parent="1" vertex="1">
          <mxGeometry x="6520" y="2340" width="207" height="191" as="geometry" />
        </mxCell>
        <mxCell id="node33" value="&lt;p style=&quot;margin:0px;margin-top:4px;text-align:center;&quot;&gt;&lt;b&gt;Levels&lt;/b&gt;&lt;/p&gt;&lt;hr size=&quot;1&quot;/&gt;&lt;p style=&quot;margin:0 0 0 4px;line-height:1.6;&quot;&gt;+ Levels(): &lt;/p&gt;&lt;hr size=&quot;1&quot;/&gt;&lt;p style=&quot;margin:0 0 0 4px;line-height:1.6;&quot;&gt;+ levelList: ArrayList&amp;lt;Level&amp;gt;&lt;/p&gt;&lt;hr size=&quot;1&quot;/&gt;&lt;p style=&quot;margin:0 0 0 4px;line-height:1.6;&quot;&gt;+ getLevel(Integer): Level&lt;/p&gt;" style="verticalAlign=top;align=left;overflow=fill;fontSize=14;fontFamily=Helvetica;html=1;rounded=0;shadow=0;comic=0;labelBackgroundColor=none;strokeWidth=1;" parent="1" vertex="1">
          <mxGeometry x="7770" y="2090" width="210" height="137" as="geometry" />
        </mxCell>
        <mxCell id="node31" value="&lt;p style=&quot;margin:0px;margin-top:4px;text-align:center;&quot;&gt;&lt;b&gt;LoginRegisterFrame&lt;/b&gt;&lt;/p&gt;&lt;hr size=&quot;1&quot;/&gt;&lt;p style=&quot;margin:0 0 0 4px;line-height:1.6;&quot;&gt;+ LoginRegisterFrame(): &lt;/p&gt;" style="verticalAlign=top;align=left;overflow=fill;fontSize=14;fontFamily=Helvetica;html=1;rounded=0;shadow=0;comic=0;labelBackgroundColor=none;strokeWidth=1;" parent="1" vertex="1">
          <mxGeometry x="9100" y="2690" width="207" height="68" as="geometry" />
        </mxCell>
        <mxCell id="node3" value="&lt;p style=&quot;margin:0px;margin-top:4px;text-align:center;&quot;&gt;&lt;b&gt;Main&lt;/b&gt;&lt;/p&gt;&lt;hr size=&quot;1&quot;/&gt;&lt;p style=&quot;margin:0 0 0 4px;line-height:1.6;&quot;&gt;+ Main(): &lt;/p&gt;&lt;hr size=&quot;1&quot;/&gt;&lt;p style=&quot;margin:0 0 0 4px;line-height:1.6;&quot;&gt;+ main(String[]): void&lt;/p&gt;" style="verticalAlign=top;align=left;overflow=fill;fontSize=14;fontFamily=Helvetica;html=1;rounded=0;shadow=0;comic=0;labelBackgroundColor=none;strokeWidth=1;" parent="1" vertex="1">
          <mxGeometry x="8319.5" y="1890" width="166" height="103" as="geometry" />
        </mxCell>
        <mxCell id="node2" value="&lt;p style=&quot;margin:0px;margin-top:4px;text-align:center;&quot;&gt;&lt;b&gt;MapUpgrade&lt;/b&gt;&lt;/p&gt;&lt;hr size=&quot;1&quot;/&gt;&lt;p style=&quot;margin:0 0 0 4px;line-height:1.6;&quot;&gt;+ MapUpgrade(): &lt;/p&gt;&lt;hr size=&quot;1&quot;/&gt;&lt;p style=&quot;margin:0 0 0 4px;line-height:1.6;&quot;&gt;+ getImage(Upgrades): Image&lt;br/&gt;+ getImage(): Image&lt;/p&gt;" style="verticalAlign=top;align=left;overflow=fill;fontSize=14;fontFamily=Helvetica;html=1;rounded=0;shadow=0;comic=0;labelBackgroundColor=none;strokeWidth=1;" parent="1" vertex="1">
          <mxGeometry x="9860" y="3201" width="218" height="129" as="geometry" />
        </mxCell>
        <mxCell id="node11" value="&lt;p style=&quot;margin:0px;margin-top:4px;text-align:center;&quot;&gt;&lt;b&gt;NetworkHandler&lt;/b&gt;&lt;/p&gt;&lt;hr size=&quot;1&quot;/&gt;&lt;p style=&quot;margin:0 0 0 4px;line-height:1.6;&quot;&gt;+ NetworkHandler(): &lt;/p&gt;&lt;hr size=&quot;1&quot;/&gt;&lt;p style=&quot;margin:0 0 0 4px;line-height:1.6;&quot;&gt;- PORT: int&lt;br/&gt;- gameClient: GameClient&lt;br/&gt;- gameServer: GameServer&lt;br/&gt;- ip: String&lt;br/&gt;- isHost: boolean&lt;/p&gt;&lt;hr size=&quot;1&quot;/&gt;&lt;p style=&quot;margin:0 0 0 4px;line-height:1.6;&quot;&gt;+ isHost(): boolean&lt;br/&gt;+ setHost(boolean): void&lt;br/&gt;+ setIp(String): void&lt;br/&gt;+ startNetwork(): void&lt;/p&gt;" style="verticalAlign=top;align=left;overflow=fill;fontSize=14;fontFamily=Helvetica;html=1;rounded=0;shadow=0;comic=0;labelBackgroundColor=none;strokeWidth=1;" parent="1" vertex="1">
          <mxGeometry x="9052" y="1670" width="201" height="295" as="geometry" />
        </mxCell>
        <mxCell id="node30" value="&lt;p style=&quot;margin:0px;margin-top:4px;text-align:center;&quot;&gt;&lt;b&gt;PlayerHandler&lt;/b&gt;&lt;/p&gt;&lt;hr size=&quot;1&quot;/&gt;&lt;p style=&quot;margin:0 0 0 4px;line-height:1.6;&quot;&gt;+ PlayerHandler(GameHandler): &lt;/p&gt;&lt;hr size=&quot;1&quot;/&gt;&lt;p style=&quot;margin:0 0 0 4px;line-height:1.6;&quot;&gt;- gameHandler: GameHandler&lt;br/&gt;- playerModel: PlayerModel&lt;/p&gt;&lt;hr size=&quot;1&quot;/&gt;&lt;p style=&quot;margin:0 0 0 4px;line-height:1.6;&quot;&gt;- adjustPosition(int, int, Direction): void&lt;br/&gt;+ calcPositionByPosAndDir(Position, Direction): Position&lt;br/&gt;- calculateLandOnPosition(int, int): Position&lt;br/&gt;+ canFinish(): boolean&lt;br/&gt;- collectUpgrade(Direction, Position): void&lt;br/&gt;+ getUpgradeByDirection(Direction): Upgrades&lt;br/&gt;- handleEmptyTile(Position): boolean&lt;br/&gt;- handleGoalTile(Position): boolean&lt;br/&gt;- handleNoneUpgradeCollection(Position, Direction): boolean&lt;br/&gt;- handleUpgradeCollection(Position, Direction): boolean&lt;br/&gt;- handleUpgradePush(Position, Direction): boolean&lt;br/&gt;+ hasAllUpgrades(): boolean&lt;br/&gt;+ hasPlayerUpgradeOnDirection(Direction): boolean&lt;br/&gt;- isPlayable(Position): boolean&lt;br/&gt;+ move(Direction): void&lt;br/&gt;- moveDown(): void&lt;br/&gt;- moveLeft(): void&lt;br/&gt;- moveRight(): void&lt;br/&gt;- moveUp(): void&lt;br/&gt;+ setPlayerModel(PlayerModel): void&lt;/p&gt;" style="verticalAlign=top;align=left;overflow=fill;fontSize=14;fontFamily=Helvetica;html=1;rounded=0;shadow=0;comic=0;labelBackgroundColor=none;strokeWidth=1;" parent="1" vertex="1">
          <mxGeometry x="9900" y="2100" width="414" height="607" as="geometry" />
        </mxCell>
        <mxCell id="node32" value="&lt;p style=&quot;margin:0px;margin-top:4px;text-align:center;&quot;&gt;&lt;b&gt;PlayerModel&lt;/b&gt;&lt;/p&gt;&lt;hr size=&quot;1&quot;/&gt;&lt;p style=&quot;margin:0 0 0 4px;line-height:1.6;&quot;&gt;+ PlayerModel(Position): &lt;/p&gt;&lt;hr size=&quot;1&quot;/&gt;&lt;p style=&quot;margin:0 0 0 4px;line-height:1.6;&quot;&gt;- hasPlaceholder: boolean&lt;br/&gt;- placeholderDirection: Direction&lt;br/&gt;- playerPosition: Position&lt;br/&gt;- playerUpgrades: Upgrade&lt;/p&gt;&lt;hr size=&quot;1&quot;/&gt;&lt;p style=&quot;margin:0 0 0 4px;line-height:1.6;&quot;&gt;+ getPlaceholderDirection(): Direction&lt;br/&gt;+ getPlayerIMG(): Image&lt;br/&gt;+ getPlayerPosition(): Position&lt;br/&gt;+ getPlayerUpgrades(): Upgrade&lt;br/&gt;+ getUpgradeIMG(Upgrades): Image&lt;br/&gt;+ hasAllUpgrades(): boolean&lt;br/&gt;+ isHasPlaceholder(): boolean&lt;br/&gt;+ setHasPlaceholder(boolean): void&lt;br/&gt;+ setPlaceholderDirection(Direction): void&lt;br/&gt;+ setPlayerPosition(Position): void&lt;br/&gt;+ setPlayerUpgrades(Upgrade): void&lt;/p&gt;" style="verticalAlign=top;align=left;overflow=fill;fontSize=14;fontFamily=Helvetica;html=1;rounded=0;shadow=0;comic=0;labelBackgroundColor=none;strokeWidth=1;" parent="1" vertex="1">
          <mxGeometry x="10220" y="1480" width="292" height="439" as="geometry" />
        </mxCell>
        <mxCell id="node25" value="&lt;p style=&quot;margin:0px;margin-top:4px;text-align:center;&quot;&gt;&lt;b&gt;Position&lt;/b&gt;&lt;/p&gt;&lt;hr size=&quot;1&quot;/&gt;&lt;p style=&quot;margin:0 0 0 4px;line-height:1.6;&quot;&gt;+ Position(int, int): &lt;br/&gt;+ Position(): &lt;/p&gt;&lt;hr size=&quot;1&quot;/&gt;&lt;p style=&quot;margin:0 0 0 4px;line-height:1.6;&quot;&gt;+ x: int&lt;br/&gt;+ y: int&lt;/p&gt;&lt;hr size=&quot;1&quot;/&gt;&lt;p style=&quot;margin:0 0 0 4px;line-height:1.6;&quot;&gt;+ equals(Object): boolean&lt;br/&gt;+ hashCode(): int&lt;/p&gt;" style="verticalAlign=top;align=left;overflow=fill;fontSize=14;fontFamily=Helvetica;html=1;rounded=0;shadow=0;comic=0;labelBackgroundColor=none;strokeWidth=1;" parent="1" vertex="1">
          <mxGeometry x="10550" y="2707" width="194" height="199" as="geometry" />
        </mxCell>
        <mxCell id="node19" value="&lt;p style=&quot;margin:0px;margin-top:4px;text-align:center;&quot;&gt;&lt;b&gt;SpectatorHandler&lt;/b&gt;&lt;/p&gt;&lt;hr size=&quot;1&quot;/&gt;&lt;p style=&quot;margin:0 0 0 4px;line-height:1.6;&quot;&gt;+ SpectatorHandler(GameModel): &lt;/p&gt;&lt;hr size=&quot;1&quot;/&gt;&lt;p style=&quot;margin:0 0 0 4px;line-height:1.6;&quot;&gt;~ gameModel: GameModel&lt;br/&gt;~ window: SpectatorWindow&lt;/p&gt;&lt;hr size=&quot;1&quot;/&gt;&lt;p style=&quot;margin:0 0 0 4px;line-height:1.6;&quot;&gt;+ updateGameModel(GameModel): void&lt;/p&gt;" style="verticalAlign=top;align=left;overflow=fill;fontSize=14;fontFamily=Helvetica;html=1;rounded=0;shadow=0;comic=0;labelBackgroundColor=none;strokeWidth=1;" parent="1" vertex="1">
          <mxGeometry x="9280" y="950" width="280" height="151" as="geometry" />
        </mxCell>
        <mxCell id="node51" value="&lt;p style=&quot;margin:0px;margin-top:4px;text-align:center;&quot;&gt;&lt;b&gt;SpectatorWindow&lt;/b&gt;&lt;/p&gt;&lt;hr size=&quot;1&quot;/&gt;&lt;p style=&quot;margin:0 0 0 4px;line-height:1.6;&quot;&gt;+ SpectatorWindow(GameModel): &lt;/p&gt;&lt;hr size=&quot;1&quot;/&gt;&lt;p style=&quot;margin:0 0 0 4px;line-height:1.6;&quot;&gt;- backgroundMusicPlayer: MP3Player&lt;br/&gt;- gamePanel: DrawPanel&lt;/p&gt;&lt;hr size=&quot;1&quot;/&gt;&lt;p style=&quot;margin:0 0 0 4px;line-height:1.6;&quot;&gt;- getSongs(): File[]&lt;br/&gt;- playBackgroundMusic(): void&lt;br/&gt;- toggleMusic(): void&lt;br/&gt;+ updateGameModel(GameModel): void&lt;/p&gt;" style="verticalAlign=top;align=left;overflow=fill;fontSize=14;fontFamily=Helvetica;html=1;rounded=0;shadow=0;comic=0;labelBackgroundColor=none;strokeWidth=1;" parent="1" vertex="1">
          <mxGeometry x="8820" y="810" width="280" height="223" as="geometry" />
        </mxCell>
        <mxCell id="node16" value="&lt;p style=&quot;margin:0px;margin-top:4px;text-align:center;&quot;&gt;&lt;b&gt;Starter&lt;/b&gt;&lt;/p&gt;&lt;hr size=&quot;1&quot;/&gt;&lt;p style=&quot;margin:0 0 0 4px;line-height:1.6;&quot;&gt;+ Starter(): &lt;/p&gt;&lt;hr size=&quot;1&quot;/&gt;&lt;p style=&quot;margin:0 0 0 4px;line-height:1.6;&quot;&gt;+ main(String[]): void&lt;/p&gt;" style="verticalAlign=top;align=left;overflow=fill;fontSize=14;fontFamily=Helvetica;html=1;rounded=0;shadow=0;comic=0;labelBackgroundColor=none;strokeWidth=1;" parent="1" vertex="1">
          <mxGeometry x="8220" y="2077" width="166" height="103" as="geometry" />
        </mxCell>
        <mxCell id="node38" value="&lt;p style=&quot;margin:0px;margin-top:4px;text-align:center;&quot;&gt;&lt;b&gt;Tile&lt;/b&gt;&lt;/p&gt;&lt;hr size=&quot;1&quot;/&gt;&lt;p style=&quot;margin:0 0 0 4px;line-height:1.6;&quot;&gt;+ Tile(TileType): &lt;/p&gt;&lt;hr size=&quot;1&quot;/&gt;&lt;p style=&quot;margin:0 0 0 4px;line-height:1.6;&quot;&gt;- isGoal: boolean&lt;br/&gt;+ tile: TileType&lt;/p&gt;&lt;hr size=&quot;1&quot;/&gt;&lt;p style=&quot;margin:0 0 0 4px;line-height:1.6;&quot;&gt;+ getGoal(boolean): Image&lt;br/&gt;+ getImage(): Image&lt;br/&gt;+ getTileType(): TileType&lt;br/&gt;+ isGoal(): boolean&lt;br/&gt;+ setGoal(): void&lt;/p&gt;" style="verticalAlign=top;align=left;overflow=fill;fontSize=14;fontFamily=Helvetica;html=1;rounded=0;shadow=0;comic=0;labelBackgroundColor=none;strokeWidth=1;" parent="1" vertex="1">
          <mxGeometry x="10430" y="330" width="198" height="247" as="geometry" />
        </mxCell>
        <mxCell id="node7" value="&lt;p style=&quot;margin:0px;margin-top:4px;text-align:center;&quot;&gt;&lt;i&gt;&amp;lt;&amp;lt;enumeration&amp;gt;&amp;gt;&lt;/i&gt;&lt;br/&gt;&lt;b&gt;TileType&lt;/b&gt;&lt;/p&gt;&lt;hr size=&quot;1&quot;/&gt;&lt;p style=&quot;margin:0 0 0 4px;line-height:1.6;&quot;&gt;- TileType(): &lt;/p&gt;&lt;hr size=&quot;1&quot;/&gt;&lt;p style=&quot;margin:0 0 0 4px;line-height:1.6;&quot;&gt;+ DARK: &lt;br/&gt;+ LIGHT: &lt;br/&gt;+ NOTHING: &lt;br/&gt;+ STANDARD: &lt;br/&gt;+ WALL: &lt;/p&gt;&lt;hr size=&quot;1&quot;/&gt;&lt;p style=&quot;margin:0 0 0 4px;line-height:1.6;&quot;&gt;+ valueOf(String): TileType&lt;br/&gt;+ values(): TileType[]&lt;/p&gt;" style="verticalAlign=top;align=left;overflow=fill;fontSize=14;fontFamily=Helvetica;html=1;rounded=0;shadow=0;comic=0;labelBackgroundColor=none;strokeWidth=1;" parent="1" vertex="1">
          <mxGeometry x="10610" y="710" width="200" height="247" as="geometry" />
        </mxCell>
        <mxCell id="node24" value="&lt;p style=&quot;margin:0px;margin-top:4px;text-align:center;&quot;&gt;&lt;b&gt;Upgrade&lt;/b&gt;&lt;/p&gt;&lt;hr size=&quot;1&quot;/&gt;&lt;p style=&quot;margin:0 0 0 4px;line-height:1.6;&quot;&gt;+ Upgrade(): &lt;/p&gt;&lt;hr size=&quot;1&quot;/&gt;&lt;p style=&quot;margin:0 0 0 4px;line-height:1.6;&quot;&gt;+ downUpgrade: Upgrades&lt;br/&gt;+ leftUpgrade: Upgrades&lt;br/&gt;+ rightUpgrade: Upgrades&lt;br/&gt;+ upUpgrade: Upgrades&lt;/p&gt;" style="verticalAlign=top;align=left;overflow=fill;fontSize=14;fontFamily=Helvetica;html=1;rounded=0;shadow=0;comic=0;labelBackgroundColor=none;strokeWidth=1;" parent="1" vertex="1">
          <mxGeometry x="10690" y="2410" width="199" height="167" as="geometry" />
        </mxCell>
        <mxCell id="node45" value="&lt;p style=&quot;margin:0px;margin-top:4px;text-align:center;&quot;&gt;&lt;i&gt;&amp;lt;&amp;lt;enumeration&amp;gt;&amp;gt;&lt;/i&gt;&lt;br/&gt;&lt;b&gt;Upgrades&lt;/b&gt;&lt;/p&gt;&lt;hr size=&quot;1&quot;/&gt;&lt;p style=&quot;margin:0 0 0 4px;line-height:1.6;&quot;&gt;- Upgrades(): &lt;/p&gt;&lt;hr size=&quot;1&quot;/&gt;&lt;p style=&quot;margin:0 0 0 4px;line-height:1.6;&quot;&gt;+ NONE: &lt;br/&gt;+ ONE: &lt;br/&gt;+ PLACEHOLDER: &lt;br/&gt;+ THREE: &lt;br/&gt;+ TWO: &lt;/p&gt;&lt;hr size=&quot;1&quot;/&gt;&lt;p style=&quot;margin:0 0 0 4px;line-height:1.6;&quot;&gt;+ valueOf(String): Upgrades&lt;br/&gt;+ values(): Upgrades[]&lt;/p&gt;" style="verticalAlign=top;align=left;overflow=fill;fontSize=14;fontFamily=Helvetica;html=1;rounded=0;shadow=0;comic=0;labelBackgroundColor=none;strokeWidth=1;" parent="1" vertex="1">
          <mxGeometry x="11084" y="2340" width="206" height="247" as="geometry" />
        </mxCell>
        <mxCell id="node0" value="&lt;p style=&quot;margin:0px;margin-top:4px;text-align:center;&quot;&gt;&lt;b&gt;User&lt;/b&gt;&lt;/p&gt;&lt;hr size=&quot;1&quot;/&gt;&lt;p style=&quot;margin:0 0 0 4px;line-height:1.6;&quot;&gt;+ User(String): &lt;/p&gt;&lt;hr size=&quot;1&quot;/&gt;&lt;p style=&quot;margin:0 0 0 4px;line-height:1.6;&quot;&gt;- levelData: Map&amp;lt;Integer, LevelUserData&amp;gt;&lt;br/&gt;- username: String&lt;/p&gt;&lt;hr size=&quot;1&quot;/&gt;&lt;p style=&quot;margin:0 0 0 4px;line-height:1.6;&quot;&gt;+ getLevelData(): Map&amp;lt;Integer, LevelUserData&amp;gt;&lt;br/&gt;+ getUsername(): String&lt;br/&gt;+ setLevelData(Map&amp;lt;Integer, LevelUserData&amp;gt;): void&lt;br/&gt;+ setUsername(String): void&lt;/p&gt;" style="verticalAlign=top;align=left;overflow=fill;fontSize=14;fontFamily=Helvetica;html=1;rounded=0;shadow=0;comic=0;labelBackgroundColor=none;strokeWidth=1;" parent="1" vertex="1">
          <mxGeometry x="7590" y="2707" width="355" height="223" as="geometry" />
        </mxCell>
        <mxCell id="node46" value="&lt;p style=&quot;margin:0px;margin-top:4px;text-align:center;&quot;&gt;&lt;b&gt;UserDataService&lt;/b&gt;&lt;/p&gt;&lt;hr size=&quot;1&quot;/&gt;&lt;p style=&quot;margin:0 0 0 4px;line-height:1.6;&quot;&gt;+ UserDataService(): &lt;/p&gt;&lt;hr size=&quot;1&quot;/&gt;&lt;p style=&quot;margin:0 0 0 4px;line-height:1.6;&quot;&gt;- FILE_PATH: String&lt;br/&gt;- gson: Gson&lt;/p&gt;&lt;hr size=&quot;1&quot;/&gt;&lt;p style=&quot;margin:0 0 0 4px;line-height:1.6;&quot;&gt;+ addUser(User): void&lt;br/&gt;+ authenticate(String): User&lt;br/&gt;- createFileIfNotExists(): void&lt;br/&gt;- editUserLevelData(User): void&lt;br/&gt;- findUserByName(String): User&lt;br/&gt;+ loadLevelUserData(int, User): LevelUserData&lt;br/&gt;+ loadUsers(): List&amp;lt;User&amp;gt;&lt;br/&gt;+ saveLevelUserData(User, LevelModel, LevelUserData): void&lt;br/&gt;- saveUser(User): void&lt;br/&gt;- saveUsers(List&amp;lt;User&amp;gt;): void&lt;br/&gt;+ userExists(String): boolean&lt;/p&gt;" style="verticalAlign=top;align=left;overflow=fill;fontSize=14;fontFamily=Helvetica;html=1;rounded=0;shadow=0;comic=0;labelBackgroundColor=none;strokeWidth=1;" parent="1" vertex="1">
          <mxGeometry x="8170" y="3100" width="411" height="391" as="geometry" />
        </mxCell>
        <mxCell id="JfmexY9dZbIOM6GxIBZt-1" value="" style="endArrow=none;html=1;rounded=0;" edge="1" parent="1">
          <mxGeometry width="50" height="50" relative="1" as="geometry">
            <mxPoint x="8950" y="2440" as="sourcePoint" />
            <mxPoint x="9400" y="2440" as="targetPoint" />
          </mxGeometry>
        </mxCell>
        <mxCell id="JfmexY9dZbIOM6GxIBZt-4" value="" style="endArrow=none;html=1;rounded=0;entryX=0.179;entryY=0.997;entryDx=0;entryDy=0;entryPerimeter=0;exitX=1;exitY=0.25;exitDx=0;exitDy=0;" edge="1" parent="1" source="node4" target="node11">
          <mxGeometry width="50" height="50" relative="1" as="geometry">
            <mxPoint x="9050" y="2250" as="sourcePoint" />
            <mxPoint x="8990" y="2180" as="targetPoint" />
            <Array as="points">
              <mxPoint x="9070" y="2250" />
            </Array>
          </mxGeometry>
        </mxCell>
        <mxCell id="JfmexY9dZbIOM6GxIBZt-5" value="" style="endArrow=none;html=1;rounded=0;entryX=0.007;entryY=0.446;entryDx=0;entryDy=0;entryPerimeter=0;" edge="1" parent="1" target="node30">
          <mxGeometry width="50" height="50" relative="1" as="geometry">
            <mxPoint x="9660" y="2370" as="sourcePoint" />
            <mxPoint x="9710" y="2320" as="targetPoint" />
          </mxGeometry>
        </mxCell>
        <mxCell id="JfmexY9dZbIOM6GxIBZt-7" value="" style="endArrow=none;html=1;rounded=0;entryX=0.135;entryY=1;entryDx=0;entryDy=0;entryPerimeter=0;" edge="1" parent="1" target="node8">
          <mxGeometry width="50" height="50" relative="1" as="geometry">
            <mxPoint x="9550" y="2170" as="sourcePoint" />
            <mxPoint x="9650" y="1920" as="targetPoint" />
            <Array as="points">
              <mxPoint x="9560" y="1970" />
            </Array>
          </mxGeometry>
        </mxCell>
        <mxCell id="JfmexY9dZbIOM6GxIBZt-9" value="" style="endArrow=none;html=1;rounded=0;entryX=0;entryY=0.5;entryDx=0;entryDy=0;" edge="1" parent="1" target="node32">
          <mxGeometry width="50" height="50" relative="1" as="geometry">
            <mxPoint x="9870" y="1700" as="sourcePoint" />
            <mxPoint x="9920" y="1650" as="targetPoint" />
          </mxGeometry>
        </mxCell>
        <mxCell id="JfmexY9dZbIOM6GxIBZt-10" value="" style="endArrow=none;html=1;rounded=0;" edge="1" parent="1">
          <mxGeometry width="50" height="50" relative="1" as="geometry">
            <mxPoint x="9870" y="1450" as="sourcePoint" />
            <mxPoint x="10040" y="1080" as="targetPoint" />
            <Array as="points">
              <mxPoint x="9940" y="1180" />
            </Array>
          </mxGeometry>
        </mxCell>
        <mxCell id="JfmexY9dZbIOM6GxIBZt-13" value="&lt;p style=&quot;margin:0px;margin-top:4px;text-align:center;&quot;&gt;&lt;b&gt;&amp;lt;&amp;lt;interface&amp;gt;&amp;gt; Serializable&lt;/b&gt;&lt;span style=&quot;background-color: initial; text-align: left;&quot;&gt;:&lt;/span&gt;&lt;/p&gt;&lt;p style=&quot;margin:0 0 0 4px;line-height:1.6;&quot;&gt;&lt;br&gt;&lt;/p&gt;" style="verticalAlign=top;align=left;overflow=fill;fontSize=14;fontFamily=Helvetica;html=1;rounded=0;shadow=0;comic=0;labelBackgroundColor=none;strokeWidth=1;" vertex="1" parent="1">
          <mxGeometry x="10730" y="1180" width="210" height="30" as="geometry" />
        </mxCell>
        <mxCell id="JfmexY9dZbIOM6GxIBZt-14" value="" style="endArrow=none;dashed=1;html=1;dashPattern=1 3;strokeWidth=2;rounded=0;entryX=0.25;entryY=1;entryDx=0;entryDy=0;" edge="1" parent="1" target="JfmexY9dZbIOM6GxIBZt-13">
          <mxGeometry width="50" height="50" relative="1" as="geometry">
            <mxPoint x="9870" y="1510" as="sourcePoint" />
            <mxPoint x="9920" y="1460" as="targetPoint" />
            <Array as="points">
              <mxPoint x="10370" y="1420" />
            </Array>
          </mxGeometry>
        </mxCell>
        <mxCell id="JfmexY9dZbIOM6GxIBZt-15" value="" style="endArrow=none;dashed=1;html=1;dashPattern=1 3;strokeWidth=2;rounded=0;entryX=0.381;entryY=1;entryDx=0;entryDy=0;entryPerimeter=0;" edge="1" parent="1" target="JfmexY9dZbIOM6GxIBZt-13">
          <mxGeometry width="50" height="50" relative="1" as="geometry">
            <mxPoint x="10510" y="1610" as="sourcePoint" />
            <mxPoint x="10560" y="1560" as="targetPoint" />
            <Array as="points">
              <mxPoint x="10720" y="1460" />
            </Array>
          </mxGeometry>
        </mxCell>
        <mxCell id="JfmexY9dZbIOM6GxIBZt-16" value="" style="endArrow=none;dashed=1;html=1;dashPattern=1 3;strokeWidth=2;rounded=0;entryX=0.373;entryY=-0.056;entryDx=0;entryDy=0;entryPerimeter=0;" edge="1" parent="1" target="JfmexY9dZbIOM6GxIBZt-13">
          <mxGeometry width="50" height="50" relative="1" as="geometry">
            <mxPoint x="10380" y="1040" as="sourcePoint" />
            <mxPoint x="10430" y="990" as="targetPoint" />
            <Array as="points">
              <mxPoint x="10590" y="1060" />
            </Array>
          </mxGeometry>
        </mxCell>
        <mxCell id="JfmexY9dZbIOM6GxIBZt-17" value="" style="endArrow=none;html=1;rounded=0;entryX=0;entryY=0.474;entryDx=0;entryDy=0;entryPerimeter=0;" edge="1" parent="1" source="node33" target="node4">
          <mxGeometry width="50" height="50" relative="1" as="geometry">
            <mxPoint x="8450" y="2445" as="sourcePoint" />
            <mxPoint x="8490" y="2400" as="targetPoint" />
            <Array as="points">
              <mxPoint x="8290" y="2340" />
            </Array>
          </mxGeometry>
        </mxCell>
        <mxCell id="JfmexY9dZbIOM6GxIBZt-18" value="" style="endArrow=none;html=1;rounded=0;exitX=0.625;exitY=0.996;exitDx=0;exitDy=0;exitPerimeter=0;" edge="1" parent="1" source="node40">
          <mxGeometry width="50" height="50" relative="1" as="geometry">
            <mxPoint x="9000" y="1760" as="sourcePoint" />
            <mxPoint x="9050" y="1710" as="targetPoint" />
            <Array as="points">
              <mxPoint x="8930" y="1700" />
            </Array>
          </mxGeometry>
        </mxCell>
        <mxCell id="JfmexY9dZbIOM6GxIBZt-19" value="" style="endArrow=none;html=1;rounded=0;" edge="1" parent="1">
          <mxGeometry width="50" height="50" relative="1" as="geometry">
            <mxPoint x="9250" y="1720" as="sourcePoint" />
            <mxPoint x="9360" y="1580" as="targetPoint" />
            <Array as="points">
              <mxPoint x="9340" y="1700" />
            </Array>
          </mxGeometry>
        </mxCell>
        <mxCell id="JfmexY9dZbIOM6GxIBZt-20" value="" style="endArrow=none;dashed=1;html=1;rounded=0;" edge="1" parent="1">
          <mxGeometry width="50" height="50" relative="1" as="geometry">
            <mxPoint x="8780" y="2170" as="sourcePoint" />
            <mxPoint x="8780" y="1580" as="targetPoint" />
          </mxGeometry>
        </mxCell>
        <mxCell id="JfmexY9dZbIOM6GxIBZt-21" value="" style="endArrow=none;html=1;rounded=0;exitX=1.003;exitY=0.387;exitDx=0;exitDy=0;exitPerimeter=0;" edge="1" parent="1" source="node36">
          <mxGeometry width="50" height="50" relative="1" as="geometry">
            <mxPoint x="8620" y="2890" as="sourcePoint" />
            <mxPoint x="8720" y="2740" as="targetPoint" />
            <Array as="points">
              <mxPoint x="8580" y="2810" />
            </Array>
          </mxGeometry>
        </mxCell>
        <mxCell id="JfmexY9dZbIOM6GxIBZt-24" value="" style="endArrow=none;html=1;rounded=0;exitX=-0.004;exitY=0.069;exitDx=0;exitDy=0;exitPerimeter=0;entryX=0.828;entryY=1.029;entryDx=0;entryDy=0;entryPerimeter=0;" edge="1" parent="1" source="node4" target="node3">
          <mxGeometry width="50" height="50" relative="1" as="geometry">
            <mxPoint x="8390" y="2040" as="sourcePoint" />
            <mxPoint x="8450" y="2000" as="targetPoint" />
            <Array as="points">
              <mxPoint x="8540" y="2060" />
            </Array>
          </mxGeometry>
        </mxCell>
        <mxCell id="JfmexY9dZbIOM6GxIBZt-25" value="Actor" style="shape=umlActor;verticalLabelPosition=bottom;verticalAlign=top;html=1;outlineConnect=0;" vertex="1" parent="1">
          <mxGeometry x="8040" y="1550" width="140" height="300" as="geometry" />
        </mxCell>
        <mxCell id="JfmexY9dZbIOM6GxIBZt-26" value="" style="endArrow=none;html=1;rounded=0;exitX=-0.015;exitY=0.157;exitDx=0;exitDy=0;exitPerimeter=0;" edge="1" parent="1" source="node3">
          <mxGeometry width="50" height="50" relative="1" as="geometry">
            <mxPoint x="8160" y="1890" as="sourcePoint" />
            <mxPoint x="8210" y="1840" as="targetPoint" />
          </mxGeometry>
        </mxCell>
        <mxCell id="JfmexY9dZbIOM6GxIBZt-27" value="" style="endArrow=none;dashed=1;html=1;rounded=0;exitX=0.313;exitY=0.01;exitDx=0;exitDy=0;exitPerimeter=0;" edge="1" parent="1" source="node16">
          <mxGeometry width="50" height="50" relative="1" as="geometry">
            <mxPoint x="8270" y="2070" as="sourcePoint" />
            <mxPoint x="8200" y="1850" as="targetPoint" />
          </mxGeometry>
        </mxCell>
        <mxCell id="JfmexY9dZbIOM6GxIBZt-28" value="" style="endArrow=none;dashed=1;html=1;rounded=0;exitX=-0.009;exitY=0.206;exitDx=0;exitDy=0;exitPerimeter=0;" edge="1" parent="1" source="node4">
          <mxGeometry width="50" height="50" relative="1" as="geometry">
            <mxPoint x="8320" y="2230" as="sourcePoint" />
            <mxPoint x="8370" y="2180" as="targetPoint" />
            <Array as="points">
              <mxPoint x="8480" y="2260" />
            </Array>
          </mxGeometry>
        </mxCell>
        <mxCell id="JfmexY9dZbIOM6GxIBZt-31" value="" style="endArrow=none;html=1;rounded=0;" edge="1" parent="1" source="node18">
          <mxGeometry width="50" height="50" relative="1" as="geometry">
            <mxPoint x="8080" y="2940" as="sourcePoint" />
            <mxPoint x="8130" y="2890" as="targetPoint" />
            <Array as="points">
              <mxPoint x="8020" y="2950" />
            </Array>
          </mxGeometry>
        </mxCell>
        <mxCell id="JfmexY9dZbIOM6GxIBZt-32" value="" style="endArrow=none;html=1;rounded=0;exitX=0.316;exitY=-0.01;exitDx=0;exitDy=0;exitPerimeter=0;" edge="1" parent="1" source="node46">
          <mxGeometry width="50" height="50" relative="1" as="geometry">
            <mxPoint x="8250" y="3060" as="sourcePoint" />
            <mxPoint x="8300" y="3010" as="targetPoint" />
          </mxGeometry>
        </mxCell>
        <mxCell id="JfmexY9dZbIOM6GxIBZt-33" value="" style="endArrow=none;html=1;rounded=0;entryX=-0.02;entryY=0.332;entryDx=0;entryDy=0;entryPerimeter=0;" edge="1" parent="1" target="node36">
          <mxGeometry width="50" height="50" relative="1" as="geometry">
            <mxPoint x="7950" y="2830" as="sourcePoint" />
            <mxPoint x="8000" y="2780" as="targetPoint" />
          </mxGeometry>
        </mxCell>
        <mxCell id="JfmexY9dZbIOM6GxIBZt-34" value="" style="endArrow=none;html=1;rounded=0;entryX=0.75;entryY=1;entryDx=0;entryDy=0;" edge="1" parent="1" target="node13">
          <mxGeometry width="50" height="50" relative="1" as="geometry">
            <mxPoint x="8170" y="2740" as="sourcePoint" />
            <mxPoint x="8220" y="2690" as="targetPoint" />
            <Array as="points">
              <mxPoint x="8100" y="2730" />
            </Array>
          </mxGeometry>
        </mxCell>
        <mxCell id="JfmexY9dZbIOM6GxIBZt-35" value="" style="endArrow=none;html=1;rounded=0;entryX=0.5;entryY=1;entryDx=0;entryDy=0;" edge="1" parent="1" target="node55">
          <mxGeometry width="50" height="50" relative="1" as="geometry">
            <mxPoint x="7340" y="2640" as="sourcePoint" />
            <mxPoint x="7070" y="1920" as="targetPoint" />
            <Array as="points">
              <mxPoint x="5730" y="2640" />
              <mxPoint x="5720" y="3300" />
              <mxPoint x="5740" y="1990" />
              <mxPoint x="7050" y="1990" />
            </Array>
          </mxGeometry>
        </mxCell>
        <mxCell id="JfmexY9dZbIOM6GxIBZt-36" value="" style="endArrow=none;html=1;rounded=0;" edge="1" parent="1">
          <mxGeometry width="50" height="50" relative="1" as="geometry">
            <mxPoint x="5720" y="3310" as="sourcePoint" />
            <mxPoint x="7010" y="3310" as="targetPoint" />
          </mxGeometry>
        </mxCell>
        <mxCell id="JfmexY9dZbIOM6GxIBZt-37" value="" style="endArrow=classic;html=1;rounded=0;entryX=0.386;entryY=0.995;entryDx=0;entryDy=0;entryPerimeter=0;" edge="1" parent="1" target="node14">
          <mxGeometry width="50" height="50" relative="1" as="geometry">
            <mxPoint x="6910" y="3310" as="sourcePoint" />
            <mxPoint x="6960" y="3260" as="targetPoint" />
          </mxGeometry>
        </mxCell>
        <mxCell id="JfmexY9dZbIOM6GxIBZt-38" value="" style="endArrow=classic;html=1;rounded=0;entryX=0.396;entryY=1.016;entryDx=0;entryDy=0;entryPerimeter=0;" edge="1" parent="1" target="node22">
          <mxGeometry width="50" height="50" relative="1" as="geometry">
            <mxPoint x="6600" y="3310" as="sourcePoint" />
            <mxPoint x="6650" y="3260" as="targetPoint" />
          </mxGeometry>
        </mxCell>
        <mxCell id="JfmexY9dZbIOM6GxIBZt-39" value="" style="endArrow=classic;html=1;rounded=0;entryX=0.5;entryY=1;entryDx=0;entryDy=0;" edge="1" parent="1" target="node1">
          <mxGeometry width="50" height="50" relative="1" as="geometry">
            <mxPoint x="6310" y="3310" as="sourcePoint" />
            <mxPoint x="6360" y="3260" as="targetPoint" />
          </mxGeometry>
        </mxCell>
        <mxCell id="JfmexY9dZbIOM6GxIBZt-40" value="" style="endArrow=classic;html=1;rounded=0;entryX=0.444;entryY=0.995;entryDx=0;entryDy=0;entryPerimeter=0;" edge="1" parent="1" target="node34">
          <mxGeometry width="50" height="50" relative="1" as="geometry">
            <mxPoint x="6000" y="3310" as="sourcePoint" />
            <mxPoint x="6014" y="3204" as="targetPoint" />
          </mxGeometry>
        </mxCell>
        <mxCell id="JfmexY9dZbIOM6GxIBZt-41" value="" style="endArrow=classic;html=1;rounded=0;" edge="1" parent="1">
          <mxGeometry width="50" height="50" relative="1" as="geometry">
            <mxPoint x="6000" y="2650" as="sourcePoint" />
            <mxPoint x="6000" y="2730" as="targetPoint" />
          </mxGeometry>
        </mxCell>
        <mxCell id="JfmexY9dZbIOM6GxIBZt-42" value="" style="endArrow=classic;html=1;rounded=0;" edge="1" parent="1">
          <mxGeometry width="50" height="50" relative="1" as="geometry">
            <mxPoint x="6300" y="2650" as="sourcePoint" />
            <mxPoint x="6300" y="2730" as="targetPoint" />
          </mxGeometry>
        </mxCell>
        <mxCell id="JfmexY9dZbIOM6GxIBZt-43" value="" style="edgeStyle=none;orthogonalLoop=1;jettySize=auto;html=1;rounded=0;" edge="1" parent="1">
          <mxGeometry width="100" relative="1" as="geometry">
            <mxPoint x="6570" y="2650" as="sourcePoint" />
            <mxPoint x="6570" y="2730" as="targetPoint" />
            <Array as="points" />
          </mxGeometry>
        </mxCell>
        <mxCell id="JfmexY9dZbIOM6GxIBZt-45" value="" style="edgeStyle=none;orthogonalLoop=1;jettySize=auto;html=1;rounded=0;" edge="1" parent="1">
          <mxGeometry width="100" relative="1" as="geometry">
            <mxPoint x="6920" y="2640" as="sourcePoint" />
            <mxPoint x="6920" y="2720" as="targetPoint" />
            <Array as="points" />
          </mxGeometry>
        </mxCell>
        <mxCell id="JfmexY9dZbIOM6GxIBZt-46" value="" style="endArrow=classic;html=1;rounded=0;" edge="1" parent="1">
          <mxGeometry width="50" height="50" relative="1" as="geometry">
            <mxPoint x="7230" y="2640" as="sourcePoint" />
            <mxPoint x="7230" y="2730" as="targetPoint" />
          </mxGeometry>
        </mxCell>
        <mxCell id="JfmexY9dZbIOM6GxIBZt-48" value="" style="endArrow=classic;html=1;rounded=0;entryX=0.348;entryY=1.037;entryDx=0;entryDy=0;entryPerimeter=0;" edge="1" parent="1" target="node47">
          <mxGeometry width="50" height="50" relative="1" as="geometry">
            <mxPoint x="5990" y="2640" as="sourcePoint" />
            <mxPoint x="6040" y="2590" as="targetPoint" />
          </mxGeometry>
        </mxCell>
        <mxCell id="JfmexY9dZbIOM6GxIBZt-49" value="" style="endArrow=classic;html=1;rounded=0;" edge="1" parent="1">
          <mxGeometry width="50" height="50" relative="1" as="geometry">
            <mxPoint x="6300" y="2640" as="sourcePoint" />
            <mxPoint x="6300" y="2540" as="targetPoint" />
          </mxGeometry>
        </mxCell>
        <mxCell id="JfmexY9dZbIOM6GxIBZt-50" value="" style="endArrow=classic;html=1;rounded=0;entryX=0.425;entryY=0.995;entryDx=0;entryDy=0;entryPerimeter=0;" edge="1" parent="1" target="node15">
          <mxGeometry width="50" height="50" relative="1" as="geometry">
            <mxPoint x="6610" y="2640" as="sourcePoint" />
            <mxPoint x="6660" y="2590" as="targetPoint" />
          </mxGeometry>
        </mxCell>
        <mxCell id="JfmexY9dZbIOM6GxIBZt-51" value="" style="endArrow=classic;html=1;rounded=0;" edge="1" parent="1">
          <mxGeometry width="50" height="50" relative="1" as="geometry">
            <mxPoint x="6930" y="2640" as="sourcePoint" />
            <mxPoint x="6930" y="2550" as="targetPoint" />
          </mxGeometry>
        </mxCell>
        <mxCell id="JfmexY9dZbIOM6GxIBZt-52" value="" style="endArrow=classic;html=1;rounded=0;" edge="1" parent="1">
          <mxGeometry width="50" height="50" relative="1" as="geometry">
            <mxPoint x="7240" y="2640" as="sourcePoint" />
            <mxPoint x="7240" y="2550" as="targetPoint" />
          </mxGeometry>
        </mxCell>
        <mxCell id="JfmexY9dZbIOM6GxIBZt-53" value="" style="endArrow=classic;html=1;rounded=0;" edge="1" parent="1">
          <mxGeometry width="50" height="50" relative="1" as="geometry">
            <mxPoint x="6040" y="1990" as="sourcePoint" />
            <mxPoint x="6040" y="2070" as="targetPoint" />
          </mxGeometry>
        </mxCell>
        <mxCell id="JfmexY9dZbIOM6GxIBZt-54" value="" style="endArrow=classic;html=1;rounded=0;" edge="1" parent="1">
          <mxGeometry width="50" height="50" relative="1" as="geometry">
            <mxPoint x="6320" y="1990" as="sourcePoint" />
            <mxPoint x="6320" y="2070" as="targetPoint" />
          </mxGeometry>
        </mxCell>
        <mxCell id="JfmexY9dZbIOM6GxIBZt-55" value="" style="endArrow=classic;html=1;rounded=0;" edge="1" parent="1">
          <mxGeometry width="50" height="50" relative="1" as="geometry">
            <mxPoint x="6630" y="2000" as="sourcePoint" />
            <mxPoint x="6630" y="2070" as="targetPoint" />
          </mxGeometry>
        </mxCell>
        <mxCell id="JfmexY9dZbIOM6GxIBZt-56" value="" style="endArrow=classic;html=1;rounded=0;" edge="1" parent="1">
          <mxGeometry width="50" height="50" relative="1" as="geometry">
            <mxPoint x="6930" y="2000" as="sourcePoint" />
            <mxPoint x="6930" y="2070" as="targetPoint" />
          </mxGeometry>
        </mxCell>
        <mxCell id="JfmexY9dZbIOM6GxIBZt-57" value="" style="endArrow=none;html=1;rounded=0;" edge="1" parent="1">
          <mxGeometry width="50" height="50" relative="1" as="geometry">
            <mxPoint x="7050" y="1990" as="sourcePoint" />
            <mxPoint x="7840" y="1990" as="targetPoint" />
          </mxGeometry>
        </mxCell>
        <mxCell id="JfmexY9dZbIOM6GxIBZt-58" value="" style="endArrow=classic;html=1;rounded=0;" edge="1" parent="1">
          <mxGeometry width="50" height="50" relative="1" as="geometry">
            <mxPoint x="7250" y="1990" as="sourcePoint" />
            <mxPoint x="7250" y="2070" as="targetPoint" />
          </mxGeometry>
        </mxCell>
        <mxCell id="JfmexY9dZbIOM6GxIBZt-59" value="" style="endArrow=classic;html=1;rounded=0;" edge="1" parent="1">
          <mxGeometry width="50" height="50" relative="1" as="geometry">
            <mxPoint x="7540" y="1990" as="sourcePoint" />
            <mxPoint x="7540" y="2080" as="targetPoint" />
          </mxGeometry>
        </mxCell>
        <mxCell id="JfmexY9dZbIOM6GxIBZt-60" value="" style="endArrow=classic;html=1;rounded=0;" edge="1" parent="1">
          <mxGeometry width="50" height="50" relative="1" as="geometry">
            <mxPoint x="7840" y="1990" as="sourcePoint" />
            <mxPoint x="7840" y="2070" as="targetPoint" />
          </mxGeometry>
        </mxCell>
        <mxCell id="JfmexY9dZbIOM6GxIBZt-61" value="" style="endArrow=none;html=1;rounded=0;entryX=1;entryY=0.75;entryDx=0;entryDy=0;" edge="1" parent="1" target="node55">
          <mxGeometry width="50" height="50" relative="1" as="geometry">
            <mxPoint x="7910" y="2090" as="sourcePoint" />
            <mxPoint x="7960" y="2040" as="targetPoint" />
            <Array as="points">
              <mxPoint x="7910" y="1790" />
            </Array>
          </mxGeometry>
        </mxCell>
        <mxCell id="JfmexY9dZbIOM6GxIBZt-66" value="" style="endArrow=none;html=1;rounded=0;" edge="1" parent="1">
          <mxGeometry width="50" height="50" relative="1" as="geometry">
            <mxPoint x="9400" y="1260" as="sourcePoint" />
            <mxPoint x="9400" y="1090" as="targetPoint" />
          </mxGeometry>
        </mxCell>
        <mxCell id="JfmexY9dZbIOM6GxIBZt-68" value="" style="endArrow=none;html=1;rounded=0;exitX=1;exitY=0.75;exitDx=0;exitDy=0;" edge="1" parent="1" source="node51">
          <mxGeometry width="50" height="50" relative="1" as="geometry">
            <mxPoint x="9230" y="1050" as="sourcePoint" />
            <mxPoint x="9280" y="1000" as="targetPoint" />
          </mxGeometry>
        </mxCell>
        <mxCell id="JfmexY9dZbIOM6GxIBZt-69" value="" style="endArrow=none;html=1;rounded=0;entryX=0;entryY=0.5;entryDx=0;entryDy=0;" edge="1" parent="1" target="node24">
          <mxGeometry width="50" height="50" relative="1" as="geometry">
            <mxPoint x="10320" y="2490" as="sourcePoint" />
            <mxPoint x="10370" y="2440" as="targetPoint" />
          </mxGeometry>
        </mxCell>
        <mxCell id="JfmexY9dZbIOM6GxIBZt-70" value="" style="endArrow=none;html=1;rounded=0;" edge="1" parent="1">
          <mxGeometry width="50" height="50" relative="1" as="geometry">
            <mxPoint x="10900" y="2490" as="sourcePoint" />
            <mxPoint x="11070" y="2490" as="targetPoint" />
          </mxGeometry>
        </mxCell>
        <mxCell id="JfmexY9dZbIOM6GxIBZt-71" value="" style="endArrow=none;html=1;rounded=0;entryX=-0.04;entryY=0.646;entryDx=0;entryDy=0;entryPerimeter=0;" edge="1" parent="1" target="node6">
          <mxGeometry width="50" height="50" relative="1" as="geometry">
            <mxPoint x="10310" y="2250" as="sourcePoint" />
            <mxPoint x="10360" y="2200" as="targetPoint" />
          </mxGeometry>
        </mxCell>
        <mxCell id="JfmexY9dZbIOM6GxIBZt-72" value="" style="endArrow=none;html=1;rounded=0;entryX=0;entryY=0.25;entryDx=0;entryDy=0;" edge="1" parent="1" target="node25">
          <mxGeometry width="50" height="50" relative="1" as="geometry">
            <mxPoint x="10320" y="2640" as="sourcePoint" />
            <mxPoint x="10370" y="2590" as="targetPoint" />
          </mxGeometry>
        </mxCell>
        <mxCell id="JfmexY9dZbIOM6GxIBZt-73" value="" style="endArrow=none;html=1;rounded=0;exitX=0;exitY=0.25;exitDx=0;exitDy=0;" edge="1" parent="1" source="node28">
          <mxGeometry width="50" height="50" relative="1" as="geometry">
            <mxPoint x="8840" y="2790" as="sourcePoint" />
            <mxPoint x="8890" y="2740" as="targetPoint" />
            <Array as="points">
              <mxPoint x="8950" y="2880" />
            </Array>
          </mxGeometry>
        </mxCell>
        <mxCell id="JfmexY9dZbIOM6GxIBZt-74" value="" style="endArrow=none;html=1;rounded=0;" edge="1" parent="1" source="node39">
          <mxGeometry width="50" height="50" relative="1" as="geometry">
            <mxPoint x="9100" y="3240" as="sourcePoint" />
            <mxPoint x="9150" y="3190" as="targetPoint" />
            <Array as="points">
              <mxPoint x="9200" y="3250" />
            </Array>
          </mxGeometry>
        </mxCell>
        <mxCell id="JfmexY9dZbIOM6GxIBZt-75" value="" style="endArrow=none;html=1;rounded=0;entryX=0;entryY=0.5;entryDx=0;entryDy=0;" edge="1" parent="1" target="node31">
          <mxGeometry width="50" height="50" relative="1" as="geometry">
            <mxPoint x="8950" y="2620" as="sourcePoint" />
            <mxPoint x="9090" y="2710" as="targetPoint" />
          </mxGeometry>
        </mxCell>
        <mxCell id="JfmexY9dZbIOM6GxIBZt-78" value="" style="endArrow=none;html=1;rounded=0;entryX=0.423;entryY=1.01;entryDx=0;entryDy=0;entryPerimeter=0;" edge="1" parent="1" target="node25">
          <mxGeometry width="50" height="50" relative="1" as="geometry">
            <mxPoint x="9600" y="3770" as="sourcePoint" />
            <mxPoint x="9650" y="3720" as="targetPoint" />
            <Array as="points">
              <mxPoint x="10200" y="3640" />
            </Array>
          </mxGeometry>
        </mxCell>
        <mxCell id="JfmexY9dZbIOM6GxIBZt-79" value="" style="endArrow=none;html=1;rounded=0;" edge="1" parent="1" target="node8">
          <mxGeometry width="50" height="50" relative="1" as="geometry">
            <mxPoint x="9470" y="3300" as="sourcePoint" />
            <mxPoint x="9790" y="1950" as="targetPoint" />
            <Array as="points">
              <mxPoint x="9730" y="2690" />
            </Array>
          </mxGeometry>
        </mxCell>
        <mxCell id="JfmexY9dZbIOM6GxIBZt-80" value="" style="endArrow=none;html=1;rounded=0;entryX=0;entryY=0.5;entryDx=0;entryDy=0;" edge="1" parent="1" target="node7">
          <mxGeometry width="50" height="50" relative="1" as="geometry">
            <mxPoint x="10380" y="900" as="sourcePoint" />
            <mxPoint x="10430" y="850" as="targetPoint" />
          </mxGeometry>
        </mxCell>
        <mxCell id="JfmexY9dZbIOM6GxIBZt-81" value="" style="endArrow=none;html=1;rounded=0;entryX=0;entryY=0.5;entryDx=0;entryDy=0;" edge="1" parent="1" target="node38">
          <mxGeometry width="50" height="50" relative="1" as="geometry">
            <mxPoint x="10310" y="680" as="sourcePoint" />
            <mxPoint x="10360" y="630" as="targetPoint" />
            <Array as="points">
              <mxPoint x="10370" y="520" />
            </Array>
          </mxGeometry>
        </mxCell>
        <mxCell id="JfmexY9dZbIOM6GxIBZt-82" value="" style="endArrow=none;html=1;rounded=0;entryX=0;entryY=0.25;entryDx=0;entryDy=0;" edge="1" parent="1" target="node38">
          <mxGeometry width="50" height="50" relative="1" as="geometry">
            <mxPoint x="7220" y="1430" as="sourcePoint" />
            <mxPoint x="7270" y="1380" as="targetPoint" />
            <Array as="points">
              <mxPoint x="8830" y="700" />
            </Array>
          </mxGeometry>
        </mxCell>
        <mxCell id="JfmexY9dZbIOM6GxIBZt-83" value="" style="endArrow=none;html=1;rounded=0;" edge="1" parent="1">
          <mxGeometry width="50" height="50" relative="1" as="geometry">
            <mxPoint x="7180" y="1377" as="sourcePoint" />
            <mxPoint x="10710" y="700" as="targetPoint" />
            <Array as="points">
              <mxPoint x="8750" y="490" />
              <mxPoint x="10670" y="210" />
            </Array>
          </mxGeometry>
        </mxCell>
        <mxCell id="JfmexY9dZbIOM6GxIBZt-84" value="" style="endArrow=none;html=1;rounded=0;entryX=0.5;entryY=1;entryDx=0;entryDy=0;" edge="1" parent="1" target="node2">
          <mxGeometry width="50" height="50" relative="1" as="geometry">
            <mxPoint x="9600" y="3520" as="sourcePoint" />
            <mxPoint x="9650" y="3470" as="targetPoint" />
            <Array as="points">
              <mxPoint x="9790" y="3460" />
            </Array>
          </mxGeometry>
        </mxCell>
        <mxCell id="JfmexY9dZbIOM6GxIBZt-85" value="" style="endArrow=none;html=1;rounded=0;entryX=0.75;entryY=0;entryDx=0;entryDy=0;" edge="1" parent="1" target="node55">
          <mxGeometry width="50" height="50" relative="1" as="geometry">
            <mxPoint x="11210" y="2340" as="sourcePoint" />
            <mxPoint x="7490" y="750" as="targetPoint" />
            <Array as="points">
              <mxPoint x="10890" y="30" />
              <mxPoint x="9430" y="110" />
              <mxPoint x="7560" y="880" />
            </Array>
          </mxGeometry>
        </mxCell>
        <mxCell id="JfmexY9dZbIOM6GxIBZt-86" value="" style="endArrow=none;html=1;rounded=0;entryX=0.6;entryY=1.041;entryDx=0;entryDy=0;entryPerimeter=0;" edge="1" parent="1" target="node20">
          <mxGeometry width="50" height="50" relative="1" as="geometry">
            <mxPoint x="9430" y="2160" as="sourcePoint" />
            <mxPoint x="9480" y="2110" as="targetPoint" />
          </mxGeometry>
        </mxCell>
        <mxCell id="JfmexY9dZbIOM6GxIBZt-87" value="" style="endArrow=none;html=1;rounded=0;exitX=0.608;exitY=-0.004;exitDx=0;exitDy=0;exitPerimeter=0;entryX=1;entryY=0.5;entryDx=0;entryDy=0;" edge="1" parent="1" source="node55" target="node25">
          <mxGeometry width="50" height="50" relative="1" as="geometry">
            <mxPoint x="7090" y="1360" as="sourcePoint" />
            <mxPoint x="11410" y="2640" as="targetPoint" />
            <Array as="points">
              <mxPoint x="7630" y="620" />
              <mxPoint x="9290" y="30" />
              <mxPoint x="10990" y="-60" />
              <mxPoint x="11470" y="1250" />
              <mxPoint x="11360" y="2740" />
            </Array>
          </mxGeometry>
        </mxCell>
      </root>
    </mxGraphModel>
  </diagram>
</mxfile>
